<svg xmlns="http://www.w3.org/2000/svg" xmlns:xlink="http://www.w3.org/1999/xlink" viewBox="0 0 1200 675" width="1200" height="675">
  <defs>
    <linearGradient id="sky" x1="0%" y1="0%" x2="0%" y2="100%">
      <stop offset="0%" style="stop-color:#4BA3E3"/>
      <stop offset="100%" style="stop-color:#A8D8F0"/>
    </linearGradient>
    <linearGradient id="snow" x1="0%" y1="0%" x2="0%" y2="100%">
      <stop offset="0%" style="stop-color:#E8F2FC"/>
      <stop offset="100%" style="stop-color:#C8D8E8"/>
    </linearGradient>
    <linearGradient id="lodge" x1="0%" y1="0%" x2="0%" y2="100%">
      <stop offset="0%" style="stop-color:#8B6B4A"/>
      <stop offset="100%" style="stop-color:#6B4B2A"/>
    </linearGradient>
    <linearGradient id="trophy" x1="0%" y1="0%" x2="0%" y2="100%">
      <stop offset="0%" style="stop-color:#FFD700"/>
      <stop offset="50%" style="stop-color:#FFC000"/>
      <stop offset="100%" style="stop-color:#E6A800"/>
    </linearGradient>
    <filter id="glow">
      <feGaussianBlur stdDeviation="6" result="blur"/>
      <feMerge><feMergeNode in="blur"/><feMergeNode in="SourceGraphic"/></feMerge>
    </filter>
    <filter id="bigGlow">
      <feGaussianBlur stdDeviation="10" result="blur"/>
      <feMerge><feMergeNode in="blur"/><feMergeNode in="SourceGraphic"/></feMerge>
    </filter>
    <filter id="shadow">
      <feDropShadow dx="2" dy="3" stdDeviation="4" flood-opacity="0.4"/>
    </filter>
    <filter id="textShadow">
      <feDropShadow dx="0" dy="2" stdDeviation="4" flood-color="#000" flood-opacity="0.9"/>
    </filter>
    <!-- Circular clip for character photos -->
    <clipPath id="photoClip1"><circle cx="200" cy="330" r="90"/></clipPath>
    <clipPath id="photoClip2"><circle cx="450" cy="330" r="90"/></clipPath>
    <clipPath id="photoClip3"><circle cx="700" cy="330" r="90"/></clipPath>
    <clipPath id="photoClip4"><circle cx="950" cy="330" r="90"/></clipPath>
  </defs>

  <!-- ============================================ -->
  <!-- SCENE 0: BLACK + TAGLINE (0s - 2.5s)        -->
  <!-- ============================================ -->
  <g id="scene0">
    <rect width="1200" height="675" fill="black"/>
    <!-- Drifting snow in darkness -->
    <g fill="white" opacity="0">
      <animate attributeName="opacity" values="0;0.5;0.5;0" keyTimes="0;0.15;0.7;1" dur="2.5s" fill="freeze"/>
      <circle cx="200" cy="80" r="2"><animate attributeName="cy" values="80;500" dur="4s" repeatCount="indefinite"/></circle>
      <circle cx="600" cy="30" r="2.5"><animate attributeName="cy" values="30;450" dur="3s" repeatCount="indefinite"/></circle>
      <circle cx="1000" cy="120" r="2"><animate attributeName="cy" values="120;540" dur="5s" repeatCount="indefinite"/></circle>
    </g>
    <text x="600" y="340" text-anchor="middle" font-family="'Georgia',serif" font-size="28" fill="white" opacity="0" letter-spacing="6">
      A mystery hidden in snow...
      <animate attributeName="opacity" values="0;1;1;0" keyTimes="0;0.15;0.65;1" dur="2.5s" fill="freeze"/>
    </text>
    <animate attributeName="opacity" values="1;1;0" keyTimes="0;0.85;1" dur="2.8s" fill="freeze"/>
  </g>

  <!-- ============================================ -->
  <!-- SCENE 1: MOUNTAIN + LODGE (2.5s - 6s)       -->
  <!-- ============================================ -->
  <g id="scene1" opacity="0">
    <animate attributeName="opacity" values="0;0;1;1;0" keyTimes="0;0.35;0.4;0.88;1" dur="6.5s" fill="freeze"/>

    <rect width="1200" height="675" fill="url(#sky)"/>
    <!-- Clouds -->
    <g fill="white" opacity="0.6">
      <ellipse cx="250" cy="80" rx="80" ry="28"><animate attributeName="cx" values="250;270" dur="6s"/></ellipse>
      <ellipse cx="800" cy="90" rx="70" ry="25"><animate attributeName="cx" values="800;815" dur="6s"/></ellipse>
    </g>
    <!-- Mountains -->
    <polygon points="0,350 150,190 300,310 450,160 600,280 750,200 900,310 1050,170 1200,250 1200,420 0,420" fill="#6A8CAE"/>
    <g fill="white" opacity="0.7">
      <polygon points="435,165 450,160 465,172 460,180 452,174 445,182 438,174"/>
      <polygon points="1035,175 1050,170 1065,182 1060,190 1052,184 1045,190"/>
    </g>
    <!-- Snow -->
    <rect x="0" y="400" width="1200" height="275" fill="url(#snow)"/>
    <ellipse cx="600" cy="400" rx="650" ry="30" fill="#D8E8F5"/>

    <!-- Lodge -->
    <g transform="translate(140,330)" filter="url(#shadow)">
      <rect x="0" y="20" width="160" height="100" fill="url(#lodge)" rx="3"/>
      <polygon points="-15,20 80,-40 175,20" fill="#5A3A1A"/>
      <polygon points="-10,22 80,-34 170,22" fill="#7B5B3A"/>
      <polygon points="-15,20 80,-42 175,20 170,18 80,-36 -10,18" fill="white" opacity="0.9"/>
      <rect x="20" y="48" width="35" height="28" fill="#FFE066" rx="2">
        <animate attributeName="opacity" values="0.7;1;0.7" dur="1.5s" repeatCount="indefinite"/>
      </rect>
      <rect x="105" y="48" width="35" height="28" fill="#FFE066" rx="2">
        <animate attributeName="opacity" values="1;0.7;1" dur="2s" repeatCount="indefinite"/>
      </rect>
      <rect x="65" y="68" width="30" height="52" fill="#4A2A0A" rx="2"/>
      <rect x="30" y="-10" width="100" height="22" fill="#4A2A0A" rx="3"/>
      <text x="80" y="6" text-anchor="middle" font-family="'Georgia',serif" font-size="12" fill="#FFD700" font-weight="bold" letter-spacing="1">SNOWPEAK</text>
      <rect x="125" y="-25" width="18" height="35" fill="#5A3A1A"/>
      <g fill="none" stroke="white" stroke-width="2" opacity="0.5">
        <path d="M134,-28 Q129,-42 136,-52 Q142,-62 134,-75">
          <animate attributeName="d" values="M134,-28 Q129,-42 136,-52 Q142,-62 134,-75;M134,-28 Q139,-44 132,-54 Q126,-64 134,-78;M134,-28 Q129,-42 136,-52 Q142,-62 134,-75" dur="3s" repeatCount="indefinite"/>
        </path>
      </g>
    </g>

    <!-- Skier zooming right -->
    <g>
      <animateTransform attributeName="transform" type="translate" values="1300,430;550,430" dur="4.5s" fill="freeze" begin="2.8s" calcMode="spline" keySplines="0.3 0 0.1 1"/>
      <rect x="-45" y="48" width="90" height="6" rx="3" fill="#3090E0" transform="rotate(-5,0,51)"/>
      <rect x="-18" y="16" width="14" height="32" fill="#2878C8" rx="4"/>
      <rect x="4" y="16" width="14" height="32" fill="#2878C8" rx="4"/>
      <rect x="-22" y="-18" width="44" height="38" fill="#E84040" rx="7"/>
      <circle cx="0" cy="-32" r="16" fill="#F5C59A"/>
      <ellipse cx="0" cy="-39" rx="18" ry="11" fill="#2878C8"/>
      <rect x="-13" y="-38" width="26" height="10" fill="#222" rx="5"/>
      <rect x="-10" y="-36" width="9" height="7" fill="#50C8FF" rx="3" opacity="0.8"/>
      <rect x="1" y="-36" width="9" height="7" fill="#50C8FF" rx="3" opacity="0.8"/>
      <path d="M-7,-22 Q0,-16 7,-22" fill="white"/>
      <rect x="-14" y="-19" width="28" height="5" fill="#FFD700" rx="2"/>
    </g>

    <!-- Snow spray -->
    <g fill="white" opacity="0.5">
      <ellipse cx="600" cy="478" rx="20" ry="6"/>
    </g>

    <!-- Snowfall -->
    <g fill="white" opacity="0.4">
      <circle cx="100" cy="100" r="2"><animate attributeName="cy" values="100;700" dur="3.5s" repeatCount="indefinite"/></circle>
      <circle cx="400" cy="50" r="2.5"><animate attributeName="cy" values="50;700" dur="4s" repeatCount="indefinite"/></circle>
      <circle cx="700" cy="150" r="2"><animate attributeName="cy" values="150;750" dur="5s" repeatCount="indefinite"/></circle>
      <circle cx="1050" cy="80" r="2"><animate attributeName="cy" values="80;700" dur="3s" repeatCount="indefinite"/></circle>
    </g>
  </g>

  <!-- ============================================ -->
  <!-- SCENE 2: CHARACTER PHOTOS (6s - 12s)         -->
  <!-- ============================================ -->
  <g id="scene2" opacity="0">
    <animate attributeName="opacity" values="0;0;1;1;1;0" keyTimes="0;0.46;0.5;0.9;0.95;1" dur="12.8s" fill="freeze"/>

    <rect width="1200" height="675" fill="#0a1628"/>

    <!-- "Meet the characters" -->
    <text x="600" y="100" text-anchor="middle" font-family="'Georgia',serif" font-size="30" fill="#FFD700" opacity="0" letter-spacing="5" filter="url(#textShadow)">
      Meet the characters
      <animate attributeName="opacity" values="0;0;1;1" keyTimes="0;0.48;0.54;1" dur="12.5s" fill="freeze"/>
    </text>

    <!-- Photo 1: Angry Boss — pop in at 7s -->
    <g opacity="0">
      <animate attributeName="opacity" values="0;0;1;1" keyTimes="0;0.52;0.58;1" dur="12.5s" fill="freeze"/>
      <!-- Glow ring -->
      <circle cx="200" cy="330" r="95" fill="none" stroke="#FF6B6B" stroke-width="3" opacity="0.6"/>
      <!-- Photo -->
      <image href="boss.jpg" x="110" y="240" width="180" height="180" clip-path="url(#photoClip1)" preserveAspectRatio="xMidYMid slice"/>
      <!-- Name -->
      <text x="200" y="455" text-anchor="middle" font-family="'Georgia',serif" font-size="16" fill="#FF6B6B" letter-spacing="2">ANGRY BOSS</text>
      <text x="200" y="478" text-anchor="middle" font-family="'Georgia',serif" font-size="11" fill="#8899aa" letter-spacing="1">"This resort is a DISASTER!"</text>
    </g>

    <!-- Photo 2: Mr Smiles — pop in at 7.5s -->
    <g opacity="0">
      <animate attributeName="opacity" values="0;0;1;1" keyTimes="0;0.57;0.63;1" dur="12.5s" fill="freeze"/>
      <circle cx="450" cy="330" r="95" fill="none" stroke="#6BB5FF" stroke-width="3" opacity="0.6"/>
      <image href="mistersmiles.jpg" x="360" y="240" width="180" height="180" clip-path="url(#photoClip2)" preserveAspectRatio="xMidYMid slice"/>
      <text x="450" y="455" text-anchor="middle" font-family="'Georgia',serif" font-size="16" fill="#6BB5FF" letter-spacing="2">MR SMILES</text>
      <text x="450" y="478" text-anchor="middle" font-family="'Georgia',serif" font-size="11" fill="#8899aa" letter-spacing="1">"Wanna hear a secret?"</text>
    </g>

    <!-- Photo 3: Coach Joe — pop in at 8s -->
    <g opacity="0">
      <animate attributeName="opacity" values="0;0;1;1" keyTimes="0;0.62;0.68;1" dur="12.5s" fill="freeze"/>
      <circle cx="700" cy="330" r="95" fill="none" stroke="#6BFF6B" stroke-width="3" opacity="0.6"/>
      <image href="coach.jpg" x="610" y="240" width="180" height="180" clip-path="url(#photoClip3)" preserveAspectRatio="xMidYMid slice"/>
      <text x="700" y="455" text-anchor="middle" font-family="'Georgia',serif" font-size="16" fill="#6BFF6B" letter-spacing="2">COACH JOE</text>
      <text x="700" y="478" text-anchor="middle" font-family="'Georgia',serif" font-size="11" fill="#8899aa" letter-spacing="1">"Drop and give me twenty!"</text>
    </g>

    <!-- Photo 4: Old Dad — pop in at 8.5s -->
    <g opacity="0">
      <animate attributeName="opacity" values="0;0;1;1" keyTimes="0;0.67;0.73;1" dur="12.5s" fill="freeze"/>
      <circle cx="950" cy="330" r="95" fill="none" stroke="#C0C0C0" stroke-width="3" opacity="0.6"/>
      <image href="olddad.jpg" x="860" y="240" width="180" height="180" clip-path="url(#photoClip4)" preserveAspectRatio="xMidYMid slice"/>
      <text x="950" y="455" text-anchor="middle" font-family="'Georgia',serif" font-size="16" fill="#C0C0C0" letter-spacing="2">OLD DAD</text>
      <text x="950" y="478" text-anchor="middle" font-family="'Georgia',serif" font-size="11" fill="#8899aa" letter-spacing="1">"I know things, sonny..."</text>
    </g>

    <!-- Row 2: More characters below (smaller) -->
    <g opacity="0">
      <animate attributeName="opacity" values="0;0;1;1" keyTimes="0;0.72;0.78;1" dur="12.5s" fill="freeze"/>

      <!-- Henry's Mom -->
      <clipPath id="photoClip5"><circle cx="350" cy="570" r="50"/></clipPath>
      <circle cx="350" cy="570" r="53" fill="none" stroke="#FF9EC6" stroke-width="2" opacity="0.6"/>
      <image href="snackmom.jpg" x="300" y="520" width="100" height="100" clip-path="url(#photoClip5)" preserveAspectRatio="xMidYMid slice"/>
      <text x="350" y="640" text-anchor="middle" font-family="'Georgia',serif" font-size="12" fill="#FF9EC6" letter-spacing="1">HENRY'S MOM</text>

      <!-- Social Media Influencer -->
      <clipPath id="photoClip6"><circle cx="600" cy="570" r="50"/></clipPath>
      <circle cx="600" cy="570" r="53" fill="none" stroke="#FFD700" stroke-width="2" opacity="0.6"/>
      <image href="dancemom.jpg" x="550" y="520" width="100" height="100" clip-path="url(#photoClip6)" preserveAspectRatio="xMidYMid slice"/>
      <text x="600" y="640" text-anchor="middle" font-family="'Georgia',serif" font-size="12" fill="#FFD700" letter-spacing="1">INFLUENCER</text>

      <!-- Question mark for more -->
      <circle cx="850" cy="570" r="50" fill="none" stroke="#4a6a8a" stroke-width="2" stroke-dasharray="8,4"/>
      <text x="850" y="585" text-anchor="middle" font-family="'Georgia',serif" font-size="40" fill="#4a6a8a">?</text>
      <text x="850" y="640" text-anchor="middle" font-family="'Georgia',serif" font-size="12" fill="#4a6a8a" letter-spacing="1">AND MORE...</text>
    </g>
  </g>

  <!-- ============================================ -->
  <!-- SCENE 3: ARCADE + SNOWBALL FIGHT (12s - 16s) -->
  <!-- ============================================ -->
  <g id="scene3" opacity="0">
    <animate attributeName="opacity" values="0;0;1;1;1;0" keyTimes="0;0.74;0.78;0.9;0.95;1" dur="16.8s" fill="freeze"/>

    <rect width="1200" height="675" fill="url(#sky)"/>
    <rect x="0" y="400" width="1200" height="275" fill="url(#snow)"/>
    <ellipse cx="600" cy="400" rx="650" ry="30" fill="#D8E8F5"/>

    <!-- Arcade cabinet -->
    <g transform="translate(600,388)" filter="url(#shadow)">
      <rect x="-45" y="-88" width="90" height="130" fill="#2A2A4A" rx="5"/>
      <rect x="-34" y="-78" width="68" height="48" fill="#001800" rx="3"/>
      <rect x="-30" y="-74" width="60" height="40" fill="#003300" rx="2"/>
      <!-- Animated screen -->
      <rect x="-18" y="-64" width="8" height="14" fill="#00FF00" opacity="0.9">
        <animate attributeName="x" values="-18;-12;-18" dur="0.4s" repeatCount="indefinite"/>
      </rect>
      <rect x="12" y="-60" width="8" height="14" fill="#00FF00" opacity="0.9">
        <animate attributeName="x" values="12;16;12" dur="0.35s" repeatCount="indefinite"/>
      </rect>
      <circle cx="0" cy="-56" r="4" fill="white">
        <animate attributeName="cx" values="-10;10;-10" dur="0.5s" repeatCount="indefinite"/>
      </circle>
      <rect x="-40" y="-88" width="80" height="16" fill="#8B0000" rx="3"/>
      <text x="0" y="-76" text-anchor="middle" font-family="monospace" font-size="10" fill="#FFD700" font-weight="bold">SNOWBALL!</text>
      <circle cx="-14" cy="-18" r="8" fill="#E84040"/>
      <circle cx="14" cy="-20" r="6" fill="#2878C8"/>
      <rect x="-8" y="4" width="16" height="6" fill="#666" rx="2"/>
      <text x="0" y="20" text-anchor="middle" font-family="monospace" font-size="8" fill="#FFD700">INSERT TOKEN</text>
    </g>

    <!-- Snowball throwers on sides -->
    <g transform="translate(280,440)">
      <rect x="-10" y="-6" width="20" height="26" fill="#3CB371" rx="5"/>
      <circle cx="0" cy="-18" r="11" fill="#F5C59A"/>
      <ellipse cx="0" cy="-26" rx="12" ry="8" fill="#E84040"/>
      <circle cx="0" cy="-32" r="5" fill="white"/>
      <circle cx="-3" cy="-18" r="2" fill="#333"/><circle cx="3" cy="-18" r="2" fill="#333"/>
      <path d="M-5,-12 Q0,-8 5,-12" fill="none" stroke="#8B4513" stroke-width="2" stroke-linecap="round"/>
      <line x1="10" y1="0" x2="26" y2="-16" stroke="#3CB371" stroke-width="6" stroke-linecap="round">
        <animate attributeName="y2" values="-16;-22;-16" dur="0.6s" repeatCount="indefinite"/>
      </line>
      <circle cx="26" cy="-18" r="5" fill="#FFD700"/>
    </g>

    <g transform="translate(920,440)">
      <rect x="-10" y="-6" width="20" height="26" fill="#9370DB" rx="5"/>
      <circle cx="0" cy="-18" r="11" fill="#F5C59A"/>
      <ellipse cx="0" cy="-26" rx="12" ry="8" fill="#4169E1"/>
      <circle cx="-3" cy="-18" r="2.5" fill="#333"/><circle cx="3" cy="-18" r="2.5" fill="#333"/>
      <circle cx="0" cy="-11" r="4" fill="#8B4513" opacity="0.6"/>
      <!-- Splat -->
      <circle cx="-8" cy="2" r="9" fill="white" opacity="0.8">
        <animate attributeName="r" values="7;10;7" dur="0.5s" repeatCount="indefinite"/>
      </circle>
      <line x1="-10" y1="0" x2="-24" y2="-14" stroke="#9370DB" stroke-width="6" stroke-linecap="round">
        <animate attributeName="y2" values="-14;-18;-14" dur="0.3s" repeatCount="indefinite"/>
      </line>
      <line x1="10" y1="0" x2="24" y2="-12" stroke="#9370DB" stroke-width="6" stroke-linecap="round">
        <animate attributeName="y2" values="-12;-16;-12" dur="0.25s" repeatCount="indefinite"/>
      </line>
    </g>

    <!-- Flying snowballs -->
    <g filter="url(#glow)">
      <circle r="7" fill="white" stroke="#D0E0F0" stroke-width="1">
        <animate attributeName="cx" values="320;520" dur="0.8s" repeatCount="indefinite"/>
        <animate attributeName="cy" values="435;405;435" dur="0.8s" repeatCount="indefinite"/>
      </circle>
      <circle r="6" fill="white" stroke="#D0E0F0" stroke-width="1" opacity="0.7">
        <animate attributeName="cx" values="880;680" dur="0.7s" repeatCount="indefinite"/>
        <animate attributeName="cy" values="430;408;430" dur="0.7s" repeatCount="indefinite"/>
      </circle>
    </g>

    <text x="600" y="590" text-anchor="middle" font-family="monospace" font-size="28" fill="#00FF00" letter-spacing="4" filter="url(#textShadow)">
      SNOWBALL SHOWDOWN!
    </text>
  </g>

  <!-- ============================================ -->
  <!-- SCENE 4: MYSTERY CAVE + TROPHY (16s - 20s)  -->
  <!-- ============================================ -->
  <g id="scene4" opacity="0">
    <animate attributeName="opacity" values="0;0;1;1;1;0" keyTimes="0;0.8;0.84;0.92;0.96;1" dur="20.8s" fill="freeze"/>

    <rect width="1200" height="675" fill="#060610"/>
    <!-- Cave walls -->
    <path d="M0,0 L0,675 L1200,675 L1200,0 Z M180,80 Q400,60 600,100 Q800,60 1020,80 L1020,600 Q800,620 600,580 Q400,620 180,600 Z" fill="#10101e"/>

    <!-- Icicles -->
    <g fill="#3a5a7a" opacity="0.5">
      <polygon points="280,80 284,150 276,150"/>
      <polygon points="450,70 453,130 447,130"/>
      <polygon points="600,85 604,165 596,165"/>
      <polygon points="750,65 753,125 747,125"/>
      <polygon points="920,75 924,145 916,145"/>
    </g>

    <!-- Cave markings -->
    <g stroke="#3a4a6a" stroke-width="1.5" fill="none" opacity="0.4">
      <path d="M240,200 L260,180 L280,200 M260,180 L260,160"/>
      <polygon points="340,250 330,230 350,230"/>
      <path d="M860,210 L880,190 L900,210 M880,190 L880,170"/>
      <polygon points="940,260 930,240 950,240"/>
    </g>

    <!-- Trophy reveal -->
    <g transform="translate(600,320)">
      <!-- Pulsing aura -->
      <circle cx="0" cy="0" r="90" fill="#FFD700" opacity="0.06">
        <animate attributeName="r" values="80;100;80" dur="1.5s" repeatCount="indefinite"/>
      </circle>
      <circle cx="0" cy="0" r="60" fill="#FFD700" opacity="0.1">
        <animate attributeName="r" values="55;65;55" dur="1.2s" repeatCount="indefinite"/>
      </circle>

      <g filter="url(#bigGlow)">
        <path d="M-28,-35 L-32,-12 Q-32,18 0,28 Q32,18 32,-12 L28,-35 Z" fill="url(#trophy)" stroke="#DAA520" stroke-width="2"/>
        <path d="M-32,-18 Q-50,-14 -46,4 Q-42,18 -28,14" fill="none" stroke="#FFD700" stroke-width="4"/>
        <path d="M32,-18 Q50,-14 46,4 Q42,18 28,14" fill="none" stroke="#FFD700" stroke-width="4"/>
        <rect x="-7" y="28" width="14" height="18" fill="#DAA520" rx="2"/>
        <ellipse cx="0" cy="50" rx="22" ry="7" fill="#DAA520"/>
        <polygon points="0,-22 4,-12 14,-12 6,-5 8,5 0,-1 -8,5 -6,-5 -14,-12 -4,-12" fill="white" opacity="0.35"/>
      </g>

      <!-- Sparkles -->
      <g fill="#FFD700">
        <polygon points="-55,-55 -52,-52 -49,-55 -52,-58"><animate attributeName="opacity" values="0;1;0" dur="1s" repeatCount="indefinite"/></polygon>
        <polygon points="55,-50 58,-47 61,-50 58,-53"><animate attributeName="opacity" values="0.5;1;0.5" dur="0.8s" repeatCount="indefinite"/></polygon>
        <polygon points="-50,45 -47,48 -44,45 -47,42"><animate attributeName="opacity" values="1;0.3;1" dur="1.2s" repeatCount="indefinite"/></polygon>
        <polygon points="52,40 55,43 58,40 55,37"><animate attributeName="opacity" values="0.3;1;0.3" dur="0.9s" repeatCount="indefinite"/></polygon>
        <polygon points="0,-65 2,-62 4,-65 2,-68"><animate attributeName="opacity" values="0;1;0" dur="0.7s" repeatCount="indefinite"/></polygon>
      </g>
    </g>

    <text x="600" y="530" text-anchor="middle" font-family="'Georgia',serif" font-size="26" fill="#FFD700" letter-spacing="4" filter="url(#textShadow)">
      Can you uncover the secret?
    </text>
  </g>

  <!-- ============================================ -->
  <!-- SCENE 5: TITLE CARD (20s - 25s)              -->
  <!-- ============================================ -->
  <g id="scene5" opacity="0">
    <animate attributeName="opacity" values="0;0;1;1" keyTimes="0;0.78;0.84;1" dur="25s" fill="freeze"/>

    <rect width="1200" height="675" fill="#0a1628"/>

    <!-- Snow -->
    <g fill="white" opacity="0.25">
      <circle cx="100" cy="100" r="2"><animate attributeName="cy" values="100;700" dur="4s" repeatCount="indefinite"/></circle>
      <circle cx="350" cy="200" r="1.5"><animate attributeName="cy" values="200;800" dur="5s" repeatCount="indefinite"/></circle>
      <circle cx="600" cy="50" r="2"><animate attributeName="cy" values="50;700" dur="3.5s" repeatCount="indefinite"/></circle>
      <circle cx="850" cy="150" r="1.5"><animate attributeName="cy" values="150;750" dur="4.5s" repeatCount="indefinite"/></circle>
      <circle cx="1100" cy="80" r="2"><animate attributeName="cy" values="80;680" dur="4s" repeatCount="indefinite"/></circle>
    </g>

    <!-- Mini trophy above title -->
    <g transform="translate(600,155)" filter="url(#glow)" opacity="0">
      <animate attributeName="opacity" values="0;0;1" keyTimes="0;0.82;0.9" dur="25s" fill="freeze"/>
      <path d="M-12,-15 L-14,-5 Q-14,8 0,12 Q14,8 14,-5 L12,-15 Z" fill="url(#trophy)" stroke="#DAA520" stroke-width="1"/>
      <path d="M-14,-8 Q-22,-6 -20,2 Q-18,8 -12,6" fill="none" stroke="#FFD700" stroke-width="2.5"/>
      <path d="M14,-8 Q22,-6 20,2 Q18,8 12,6" fill="none" stroke="#FFD700" stroke-width="2.5"/>
      <rect x="-3" y="12" width="6" height="8" fill="#DAA520" rx="1"/>
      <ellipse cx="0" cy="22" rx="10" ry="3" fill="#DAA520"/>
    </g>

    <!-- Title -->
    <g filter="url(#bigGlow)" opacity="0">
      <animate attributeName="opacity" values="0;0;1" keyTimes="0;0.82;0.9" dur="25s" fill="freeze"/>
      <rect x="180" y="210" width="840" height="170" fill="#1A3A5C" rx="12" opacity="0.9"/>
      <rect x="186" y="216" width="828" height="158" fill="none" stroke="#FFD700" stroke-width="2" rx="10" opacity="0.5"/>
      <text x="600" y="280" text-anchor="middle" font-family="'Georgia','Times New Roman',serif" font-size="52" fill="white" font-weight="bold" letter-spacing="4">THE SECRET OF</text>
      <text x="600" y="350" text-anchor="middle" font-family="'Georgia','Times New Roman',serif" font-size="42" fill="#FFD700" font-weight="bold" letter-spacing="6">SNOWPEAK RESORT</text>
    </g>

    <!-- Snowflake accents -->
    <g fill="none" stroke="white" stroke-width="1.5" opacity="0">
      <animate attributeName="opacity" values="0;0;0.5" keyTimes="0;0.86;0.94" dur="25s" fill="freeze"/>
      <g transform="translate(160,295) scale(1.5)">
        <line x1="0" y1="-8" x2="0" y2="8"/><line x1="-7" y1="-4" x2="7" y2="4"/><line x1="-7" y1="4" x2="7" y2="-4"/>
      </g>
      <g transform="translate(1040,295) scale(1.5)">
        <line x1="0" y1="-8" x2="0" y2="8"/><line x1="-7" y1="-4" x2="7" y2="4"/><line x1="-7" y1="4" x2="7" y2="-4"/>
      </g>
    </g>

    <!-- Subtitle -->
    <text x="600" y="430" text-anchor="middle" font-family="'Georgia',serif" font-size="20" fill="#8AACCC" opacity="0" letter-spacing="6">
      A TEXT ADVENTURE GAME
      <animate attributeName="opacity" values="0;0;0.8" keyTimes="0;0.88;0.95" dur="25s" fill="freeze"/>
    </text>

    <!-- PLAY NOW button -->
    <g opacity="0">
      <animate attributeName="opacity" values="0;0;1" keyTimes="0;0.9;0.96" dur="25s" fill="freeze"/>
      <rect x="470" y="480" width="260" height="55" fill="#FFD700" rx="28" opacity="0.9">
        <animate attributeName="opacity" values="0.8;1;0.8" dur="1.2s" repeatCount="indefinite"/>
      </rect>
      <text x="600" y="515" text-anchor="middle" font-family="'Georgia',serif" font-size="24" fill="#1A3A5C" font-weight="bold" letter-spacing="4">PLAY NOW</text>
    </g>
  </g>

  <!-- ============================================ -->
  <!-- CINEMATIC LETTERBOX BARS                     -->
  <!-- ============================================ -->
  <rect x="0" y="0" width="1200" height="45" fill="black"/>
  <rect x="0" y="630" width="1200" height="45" fill="black"/>

</svg>
