<svg xmlns="http://www.w3.org/2000/svg" viewBox="0 0 1200 675">
  <defs>
    <linearGradient id="sky" x1="0%" y1="0%" x2="0%" y2="100%">
      <stop offset="0%" style="stop-color:#1A3A6C"/>
      <stop offset="40%" style="stop-color:#3A7CC8"/>
      <stop offset="100%" style="stop-color:#6BB8E8"/>
    </linearGradient>
    <linearGradient id="snow" x1="0%" y1="0%" x2="0%" y2="100%">
      <stop offset="0%" style="stop-color:#E8F2FC"/>
      <stop offset="100%" style="stop-color:#C8D8EC"/>
    </linearGradient>
    <linearGradient id="mountain1" x1="0%" y1="0%" x2="0%" y2="100%">
      <stop offset="0%" style="stop-color:#5A7D9E"/>
      <stop offset="100%" style="stop-color:#3A5D7E"/>
    </linearGradient>
    <linearGradient id="mountain2" x1="0%" y1="0%" x2="0%" y2="100%">
      <stop offset="0%" style="stop-color:#4E6F8E"/>
      <stop offset="100%" style="stop-color:#2E4F6E"/>
    </linearGradient>
    <linearGradient id="jacket" x1="0%" y1="0%" x2="0%" y2="100%">
      <stop offset="0%" style="stop-color:#E84040"/>
      <stop offset="100%" style="stop-color:#C02020"/>
    </linearGradient>
    <linearGradient id="pants" x1="0%" y1="0%" x2="0%" y2="100%">
      <stop offset="0%" style="stop-color:#2878C8"/>
      <stop offset="100%" style="stop-color:#1858A8"/>
    </linearGradient>
    <linearGradient id="lodge" x1="0%" y1="0%" x2="0%" y2="100%">
      <stop offset="0%" style="stop-color:#8B6B4A"/>
      <stop offset="100%" style="stop-color:#6B4B2A"/>
    </linearGradient>
    <linearGradient id="trophy" x1="0%" y1="0%" x2="0%" y2="100%">
      <stop offset="0%" style="stop-color:#FFD700"/>
      <stop offset="50%" style="stop-color:#FFC000"/>
      <stop offset="100%" style="stop-color:#E6A800"/>
    </linearGradient>
    <linearGradient id="titleBg" x1="0%" y1="0%" x2="100%" y2="0%">
      <stop offset="0%" style="stop-color:#0A1A3C;stop-opacity:0.95"/>
      <stop offset="50%" style="stop-color:#1A3A6C;stop-opacity:0.95"/>
      <stop offset="100%" style="stop-color:#0A1A3C;stop-opacity:0.95"/>
    </linearGradient>
    <linearGradient id="auraBg" x1="0%" y1="0%" x2="0%" y2="100%">
      <stop offset="0%" style="stop-color:#FFD700;stop-opacity:0.3"/>
      <stop offset="100%" style="stop-color:#FFD700;stop-opacity:0"/>
    </linearGradient>
    <filter id="shadow">
      <feDropShadow dx="2" dy="3" stdDeviation="3" flood-opacity="0.3"/>
    </filter>
    <filter id="glow">
      <feGaussianBlur stdDeviation="4" result="blur"/>
      <feMerge><feMergeNode in="blur"/><feMergeNode in="SourceGraphic"/></feMerge>
    </filter>
    <filter id="trophyglow">
      <feGaussianBlur stdDeviation="8" result="blur"/>
      <feMerge><feMergeNode in="blur"/><feMergeNode in="SourceGraphic"/></feMerge>
    </filter>
    <filter id="textShadow">
      <feDropShadow dx="0" dy="2" stdDeviation="4" flood-color="#000" flood-opacity="0.5"/>
    </filter>
    <!-- Star shape for decorations -->
    <clipPath id="circleClip1"><circle cx="0" cy="0" r="38"/></clipPath>
    <clipPath id="circleClip2"><circle cx="0" cy="0" r="32"/></clipPath>
  </defs>

  <!-- Sky - deeper blue gradient -->
  <rect width="1200" height="675" fill="url(#sky)"/>

  <!-- Stars/sparkle in sky -->
  <g fill="white" opacity="0.4">
    <circle cx="80" cy="30" r="1.5"/><circle cx="200" cy="55" r="1"/>
    <circle cx="350" cy="20" r="1.5"/><circle cx="500" cy="40" r="1"/>
    <circle cx="680" cy="25" r="1.5"/><circle cx="850" cy="50" r="1"/>
    <circle cx="1000" cy="15" r="1.5"/><circle cx="1120" cy="45" r="1"/>
    <circle cx="150" cy="80" r="1"/><circle cx="950" cy="70" r="1"/>
  </g>

  <!-- Aurora-like glow behind mountains -->
  <ellipse cx="600" cy="120" rx="500" ry="100" fill="url(#auraBg)" opacity="0.3"/>

  <!-- Far mountains - MUCH taller, reaching near top -->
  <g fill="url(#mountain2)">
    <polygon points="0,280 80,60 160,180 280,30 400,150 520,80 640,170 760,40 900,130 1050,60 1200,100 1200,340 0,340"/>
  </g>
  <!-- Snow caps - larger -->
  <g fill="white" opacity="0.9">
    <polygon points="265,38 280,30 295,40 290,52 282,44 275,54 268,46"/>
    <polygon points="745,48 760,40 775,50 770,62 762,54 755,63 748,55"/>
    <polygon points="70,68 80,60 92,70 86,80 80,74 75,79"/>
    <polygon points="510,88 520,80 532,90 526,100 520,94 515,98"/>
    <polygon points="1040,68 1050,60 1062,70 1056,78 1050,72 1045,76"/>
    <polygon points="1190,108 1200,100 1210,110 1205,118 1200,112"/>
    <polygon points="890,138 900,130 912,140 906,148 900,142 895,146"/>
  </g>

  <!-- Near mountains -->
  <g fill="url(#mountain1)" opacity="0.8">
    <polygon points="0,340 150,200 300,300 450,180 620,270 800,160 1000,250 1200,200 1200,340 0,340"/>
  </g>
  <g fill="white" opacity="0.7">
    <polygon points="440,186 450,180 462,190 456,200 450,194 445,198"/>
    <polygon points="790,166 800,160 812,170 806,178 800,172 795,176"/>
    <polygon points="140,206 150,200 162,210 156,218 150,212 145,216"/>
  </g>

  <!-- Snow ground - starts higher at y=320 -->
  <rect x="0" y="320" width="1200" height="355" fill="url(#snow)"/>
  <ellipse cx="600" cy="320" rx="650" ry="25" fill="#D8E8F8"/>

  <!-- Falling snowflakes - more and larger -->
  <g fill="white">
    <circle cx="60" cy="100" r="3.5" opacity="0.8"/>
    <circle cx="180" cy="180" r="3" opacity="0.7"/>
    <circle cx="320" cy="60" r="3.5" opacity="0.6"/>
    <circle cx="450" cy="200" r="2.5" opacity="0.5"/>
    <circle cx="580" cy="120" r="3" opacity="0.7"/>
    <circle cx="720" cy="170" r="3.5" opacity="0.6"/>
    <circle cx="860" cy="90" r="3" opacity="0.8"/>
    <circle cx="1000" cy="160" r="2.5" opacity="0.5"/>
    <circle cx="1140" cy="100" r="3" opacity="0.7"/>
    <circle cx="120" cy="270" r="2.5" opacity="0.4"/>
    <circle cx="380" cy="290" r="3" opacity="0.5"/>
    <circle cx="650" cy="250" r="2.5" opacity="0.4"/>
    <circle cx="900" cy="280" r="3" opacity="0.5"/>
    <circle cx="1080" cy="260" r="2.5" opacity="0.4"/>
    <circle cx="250" cy="340" r="2" opacity="0.3"/>
    <circle cx="500" cy="380" r="2.5" opacity="0.3"/>
    <circle cx="750" cy="350" r="2" opacity="0.3"/>
    <circle cx="1050" cy="370" r="2.5" opacity="0.3"/>
  </g>

  <!-- ===== LODGE (left, larger) ===== -->
  <g transform="translate(95,240)" filter="url(#shadow)">
    <rect x="0" y="20" width="190" height="120" fill="url(#lodge)" rx="3"/>
    <polygon points="-18,20 95,-50 208,20" fill="#5A3A1A"/>
    <polygon points="-12,22 95,-44 202,22" fill="#7B5B3A"/>
    <polygon points="-18,20 95,-54 208,20 202,17 95,-46 -12,17" fill="white" opacity="0.9"/>
    <!-- Windows -->
    <rect x="22" y="45" width="42" height="36" fill="#FFE066" rx="2" opacity="0.9"/>
    <rect x="126" y="45" width="42" height="36" fill="#FFE066" rx="2" opacity="0.9"/>
    <rect x="24" y="47" width="38" height="32" fill="#FFF4B0" rx="1" opacity="0.5"/>
    <rect x="128" y="47" width="38" height="32" fill="#FFF4B0" rx="1" opacity="0.5"/>
    <line x1="43" y1="45" x2="43" y2="81" stroke="#6B4B2A" stroke-width="2"/>
    <line x1="22" y1="63" x2="64" y2="63" stroke="#6B4B2A" stroke-width="2"/>
    <line x1="147" y1="45" x2="147" y2="81" stroke="#6B4B2A" stroke-width="2"/>
    <line x1="126" y1="63" x2="168" y2="63" stroke="#6B4B2A" stroke-width="2"/>
    <!-- Door -->
    <rect x="77" y="75" width="36" height="65" fill="#4A2A0A" rx="2"/>
    <circle cx="104" cy="108" r="3.5" fill="#C8A040"/>
    <!-- Sign -->
    <rect x="32" y="-12" width="126" height="26" fill="#4A2A0A" rx="3"/>
    <text x="95" y="8" text-anchor="middle" font-family="'Georgia',serif" font-size="15" fill="#FFD700" font-weight="bold" letter-spacing="1.5">SNOWPEAK</text>
    <!-- Chimney -->
    <rect x="145" y="-32" width="24" height="42" fill="#5A3A1A"/>
    <rect x="140" y="-36" width="34" height="7" fill="#6B4B2A" rx="1"/>
    <g fill="none" stroke="white" stroke-width="2.5" opacity="0.5">
      <path d="M157,-38 Q152,-55 160,-68 Q166,-80 158,-95"/>
      <path d="M162,-36 Q168,-50 162,-62 Q156,-74 164,-88" opacity="0.3"/>
    </g>
  </g>

  <!-- Pine trees (left cluster) -->
  <g filter="url(#shadow)">
    <g transform="translate(320,280)">
      <rect x="-6" y="35" width="12" height="24" fill="#5A3A1A"/>
      <polygon points="0,-40 -30,12 -22,10 -36,55 36,55 22,10 30,12" fill="#2D7A3A"/>
      <g fill="white" opacity="0.8">
        <ellipse cx="-6" cy="12" rx="14" ry="5"/>
        <ellipse cx="8" cy="34" rx="16" ry="5"/>
        <ellipse cx="-2" cy="-12" rx="9" ry="3.5"/>
      </g>
    </g>
    <g transform="translate(365,296)">
      <rect x="-5" y="24" width="10" height="18" fill="#5A3A1A"/>
      <polygon points="0,-24 -22,6 -15,5 -26,36 26,36 15,5 22,6" fill="#28703A"/>
      <g fill="white" opacity="0.8">
        <ellipse cx="0" cy="6" rx="12" ry="4"/>
        <ellipse cx="3" cy="-10" rx="8" ry="3"/>
      </g>
    </g>
  </g>

  <!-- Pine trees (right cluster) -->
  <g filter="url(#shadow)">
    <g transform="translate(1060,285)">
      <rect x="-6" y="32" width="12" height="22" fill="#5A3A1A"/>
      <polygon points="0,-36 -28,10 -20,8 -34,50 34,50 20,8 28,10" fill="#2D7A3A"/>
      <g fill="white" opacity="0.8">
        <ellipse cx="-5" cy="10" rx="13" ry="5"/>
        <ellipse cx="6" cy="32" rx="15" ry="5"/>
        <ellipse cx="0" cy="-10" rx="8" ry="3"/>
      </g>
    </g>
    <g transform="translate(1110,300)">
      <rect x="-5" y="22" width="10" height="16" fill="#5A3A1A"/>
      <polygon points="0,-22 -20,5 -14,4 -24,32 24,32 14,4 20,5" fill="#28703A"/>
      <g fill="white" opacity="0.8">
        <ellipse cx="0" cy="5" rx="11" ry="3.5"/>
        <ellipse cx="3" cy="-8" rx="7" ry="3"/>
      </g>
    </g>
  </g>

  <!-- ===== CARTOON SKIER (center, larger) ===== -->
  <g transform="translate(500,340) scale(1.3)" filter="url(#shadow)">
    <!-- Skis -->
    <g fill="#3090E0" stroke="#2070B0" stroke-width="1.5">
      <rect x="-55" y="60" width="110" height="7" rx="3.5" transform="rotate(-5,0,63)"/>
    </g>
    <ellipse cx="-58" cy="57" rx="7" ry="4" fill="#3090E0" transform="rotate(-15,-58,57)"/>
    <!-- Legs -->
    <rect x="-18" y="22" width="15" height="38" fill="url(#pants)" rx="5" transform="rotate(3,-10,40)"/>
    <rect x="3" y="22" width="15" height="38" fill="url(#pants)" rx="5" transform="rotate(-3,10,40)"/>
    <rect x="-22" y="52" width="20" height="12" fill="#333" rx="3"/>
    <rect x="2" y="52" width="20" height="12" fill="#333" rx="3"/>
    <!-- Body -->
    <rect x="-24" y="-22" width="48" height="48" fill="url(#jacket)" rx="8"/>
    <line x1="0" y1="-18" x2="0" y2="22" stroke="#A01818" stroke-width="1.5"/>
    <rect x="-17" y="-24" width="34" height="7" fill="#C02020" rx="3"/>
    <!-- Arms with poles -->
    <g transform="rotate(-35,-24,-8)">
      <rect x="-44" y="-15" width="26" height="12" fill="url(#jacket)" rx="5"/>
      <ellipse cx="-47" cy="-9" rx="7" ry="6" fill="#F0A030"/>
      <line x1="-47" y1="-9" x2="-64" y2="62" stroke="#C0C0C0" stroke-width="2.5" stroke-linecap="round"/>
      <circle cx="-64" cy="62" r="5" fill="none" stroke="#C0C0C0" stroke-width="1.5"/>
    </g>
    <g transform="rotate(35,24,-8)">
      <rect x="18" y="-15" width="26" height="12" fill="url(#jacket)" rx="5"/>
      <ellipse cx="47" cy="-9" rx="7" ry="6" fill="#F0A030"/>
      <line x1="47" y1="-9" x2="64" y2="62" stroke="#C0C0C0" stroke-width="2.5" stroke-linecap="round"/>
      <circle cx="64" cy="62" r="5" fill="none" stroke="#C0C0C0" stroke-width="1.5"/>
    </g>
    <!-- Head -->
    <circle cx="0" cy="-40" r="20" fill="#F5C59A"/>
    <ellipse cx="0" cy="-48" rx="22" ry="15" fill="#2878C8"/>
    <ellipse cx="0" cy="-46" rx="24" ry="10" fill="#2070B0"/>
    <rect x="-17" y="-46" width="34" height="14" fill="#222" rx="7"/>
    <rect x="-14" y="-44" width="12" height="10" fill="#50C8FF" rx="4" opacity="0.8"/>
    <rect x="2" y="-44" width="12" height="10" fill="#50C8FF" rx="4" opacity="0.8"/>
    <rect x="-12" y="-43" width="5" height="3" fill="white" rx="1.5" opacity="0.5"/>
    <rect x="4" y="-43" width="5" height="3" fill="white" rx="1.5" opacity="0.5"/>
    <path d="M-10,-28 Q0,-20 10,-28" fill="none" stroke="#8B4513" stroke-width="2" stroke-linecap="round"/>
    <path d="M-7,-28 Q0,-22 7,-28" fill="white"/>
    <circle cx="-13" cy="-30" r="4" fill="#FF8888" opacity="0.4"/>
    <circle cx="13" cy="-30" r="4" fill="#FF8888" opacity="0.4"/>
    <rect x="-18" y="-24" width="36" height="7" fill="#FFD700" rx="3"/>
    <rect x="12" y="-24" width="10" height="16" fill="#FFD700" rx="3" transform="rotate(15,17,-16)"/>
  </g>

  <!-- Snow spray -->
  <g transform="translate(500,430)" fill="white" opacity="0.5">
    <ellipse cx="-35" cy="0" rx="20" ry="6" transform="rotate(-10)"/>
    <ellipse cx="35" cy="0" rx="20" ry="6" transform="rotate(10)"/>
  </g>

  <!-- Slalom gates -->
  <g>
    <g transform="translate(400,370)">
      <line x1="0" y1="0" x2="0" y2="-42" stroke="#E84040" stroke-width="4" stroke-linecap="round"/>
      <polygon points="-2,-42 -18,-36 -2,-29" fill="#E84040"/>
    </g>
    <g transform="translate(640,375)">
      <line x1="0" y1="0" x2="0" y2="-42" stroke="#2878C8" stroke-width="4" stroke-linecap="round"/>
      <polygon points="2,-42 18,-36 2,-29" fill="#2878C8"/>
    </g>
  </g>

  <!-- ===== SNOWBALL FIGHT SCENE (right side, larger) ===== -->
  <g transform="translate(780,350) scale(1.2)">
    <!-- Thrower -->
    <g>
      <rect x="-10" y="-6" width="20" height="26" fill="#3CB371" rx="5"/>
      <circle cx="0" cy="-16" r="11" fill="#F5C59A"/>
      <ellipse cx="0" cy="-24" rx="12" ry="8" fill="#E84040"/>
      <rect x="-12" y="-20" width="24" height="5" fill="#C02020" rx="2"/>
      <circle cx="0" cy="-30" r="5" fill="white"/>
      <circle cx="-4" cy="-17" r="2" fill="#333"/>
      <circle cx="4" cy="-17" r="2" fill="#333"/>
      <path d="M-5,-11 Q0,-7 5,-11" fill="none" stroke="#8B4513" stroke-width="1.5" stroke-linecap="round"/>
      <line x1="10" y1="0" x2="26" y2="-16" stroke="#3CB371" stroke-width="6" stroke-linecap="round"/>
      <circle cx="26" cy="-16" r="5" fill="#FFD700"/>
      <rect x="-7" y="20" width="6" height="14" fill="url(#pants)" rx="2"/>
      <rect x="1" y="20" width="6" height="14" fill="url(#pants)" rx="2"/>
      <rect x="-8" y="32" width="8" height="5" fill="#333" rx="2"/>
      <rect x="0" y="32" width="8" height="5" fill="#333" rx="2"/>
    </g>
    <!-- Flying snowballs -->
    <g filter="url(#glow)">
      <circle cx="42" cy="-18" r="7" fill="white" stroke="#D0E0F0" stroke-width="1.5"/>
      <circle cx="65" cy="-12" r="6" fill="white" stroke="#D0E0F0" stroke-width="1" opacity="0.8"/>
      <circle cx="88" cy="-6" r="5" fill="white" stroke="#D0E0F0" stroke-width="1" opacity="0.6"/>
    </g>
    <!-- Target getting hit -->
    <g transform="translate(110,0)">
      <rect x="-10" y="-6" width="20" height="26" fill="#9370DB" rx="5"/>
      <circle cx="0" cy="-16" r="11" fill="#F5C59A"/>
      <ellipse cx="0" cy="-24" rx="12" ry="8" fill="#4169E1"/>
      <rect x="-12" y="-20" width="24" height="5" fill="#3058C0" rx="2"/>
      <circle cx="-4" cy="-17" r="2.5" fill="#333"/>
      <circle cx="4" cy="-17" r="2.5" fill="#333"/>
      <circle cx="0" cy="-10" r="3.5" fill="#8B4513" opacity="0.7"/>
      <!-- Splat -->
      <circle cx="-6" cy="2" r="8" fill="white" opacity="0.8"/>
      <circle cx="-10" cy="-2" r="4" fill="white" opacity="0.6"/>
      <circle cx="-2" cy="7" r="4" fill="white" opacity="0.6"/>
      <!-- Arms flailing -->
      <line x1="-10" y1="0" x2="-24" y2="-12" stroke="#9370DB" stroke-width="6" stroke-linecap="round"/>
      <line x1="10" y1="0" x2="24" y2="-10" stroke="#9370DB" stroke-width="6" stroke-linecap="round"/>
      <rect x="-7" y="20" width="6" height="14" fill="#555" rx="2"/>
      <rect x="1" y="20" width="6" height="14" fill="#555" rx="2"/>
    </g>
  </g>

  <!-- ===== ARCADE CABINET (far right, larger) ===== -->
  <g transform="translate(990,340) scale(1.2)" filter="url(#shadow)">
    <rect x="-28" y="-60" width="56" height="90" fill="#2A2A4A" rx="4"/>
    <rect x="-22" y="-52" width="44" height="34" fill="#001800" rx="2"/>
    <rect x="-20" y="-50" width="40" height="30" fill="#003300" rx="1"/>
    <rect x="-12" y="-44" width="5" height="10" fill="#00FF00" opacity="0.9"/>
    <rect x="7" y="-42" width="5" height="10" fill="#00FF00" opacity="0.9"/>
    <circle cx="-2" cy="-38" r="3" fill="#FFFFFF" opacity="0.8"/>
    <rect x="-25" y="-60" width="50" height="12" fill="#8B0000" rx="2"/>
    <text x="0" y="-51" text-anchor="middle" font-family="monospace" font-size="7" fill="#FFD700" font-weight="bold">SNOWBALL</text>
    <circle cx="-10" cy="-10" r="6" fill="#E84040"/>
    <circle cx="10" cy="-12" r="4" fill="#2878C8"/>
    <rect x="-5" y="4" width="10" height="4" fill="#666" rx="1"/>
    <rect x="-25" y="30" width="10" height="14" fill="#222"/>
    <rect x="15" y="30" width="10" height="14" fill="#222"/>
  </g>

  <!-- ===== HUSKY DOG (near lodge, larger) ===== -->
  <g transform="translate(310,375) scale(1.2)" filter="url(#shadow)">
    <ellipse cx="0" cy="0" rx="24" ry="16" fill="#B0B8C8"/>
    <ellipse cx="0" cy="5" rx="18" ry="9" fill="white"/>
    <circle cx="24" cy="-12" r="14" fill="#B0B8C8"/>
    <ellipse cx="28" cy="-7" rx="9" ry="8" fill="white"/>
    <circle cx="30" cy="-15" r="3" fill="#4488CC"/>
    <circle cx="30" cy="-15" r="1.5" fill="#222"/>
    <ellipse cx="36" cy="-9" rx="3.5" ry="2.5" fill="#333"/>
    <polygon points="18,-24 14,-36 22,-26" fill="#888"/>
    <polygon points="26,-24 22,-36 30,-26" fill="#888"/>
    <polygon points="19,-25 16,-33 22,-26" fill="#C0A0A0"/>
    <polygon points="27,-25 24,-33 30,-26" fill="#C0A0A0"/>
    <path d="M-22,-5 Q-34,-22 -20,-27" fill="none" stroke="#B0B8C8" stroke-width="7" stroke-linecap="round"/>
    <path d="M-22,-5 Q-34,-22 -20,-27" fill="none" stroke="white" stroke-width="3.5" stroke-linecap="round" opacity="0.5"/>
    <rect x="-14" y="12" width="7" height="16" fill="#B0B8C8" rx="3"/>
    <rect x="7" y="12" width="7" height="16" fill="#B0B8C8" rx="3"/>
    <ellipse cx="-10" cy="28" rx="5" ry="3.5" fill="white"/>
    <ellipse cx="10" cy="28" rx="5" ry="3.5" fill="white"/>
    <ellipse cx="38" cy="-4" rx="3.5" ry="5" fill="#FF6B8A"/>
  </g>

  <!-- ===== HENRY'S MOM (Snack Mom, left foreground) ===== -->
  <g transform="translate(60,380) scale(1.2)" filter="url(#shadow)">
    <rect x="-14" y="-10" width="28" height="34" fill="#E06090" rx="7"/>
    <ellipse cx="0" cy="-2" rx="15" ry="6" fill="#E870A0" opacity="0.5"/>
    <ellipse cx="0" cy="10" rx="15" ry="6" fill="#E870A0" opacity="0.5"/>
    <circle cx="0" cy="-22" r="13" fill="#F5C59A"/>
    <ellipse cx="0" cy="-30" rx="14" ry="9" fill="#8B5E3C"/>
    <ellipse cx="-9" cy="-22" rx="6" ry="9" fill="#8B5E3C"/>
    <ellipse cx="9" cy="-22" rx="6" ry="9" fill="#8B5E3C"/>
    <circle cx="-4" cy="-22" r="2" fill="#333"/>
    <circle cx="4" cy="-22" r="2" fill="#333"/>
    <path d="M-6,-16 Q0,-11 6,-16" fill="none" stroke="#8B4513" stroke-width="1.5" stroke-linecap="round"/>
    <circle cx="-8" cy="-17" r="3.5" fill="#FF8888" opacity="0.4"/>
    <circle cx="8" cy="-17" r="3.5" fill="#FF8888" opacity="0.4"/>
    <line x1="-14" y1="2" x2="-26" y2="14" stroke="#E06090" stroke-width="6" stroke-linecap="round"/>
    <line x1="14" y1="2" x2="26" y2="14" stroke="#E06090" stroke-width="6" stroke-linecap="round"/>
    <rect x="-36" y="10" width="16" height="20" fill="#4CAF50" rx="2"/>
    <rect x="20" y="8" width="16" height="20" fill="#FF9800" rx="2"/>
    <rect x="-34" y="8" width="5" height="7" fill="#FFD700" rx="1"/>
    <rect x="-29" y="6" width="4" height="9" fill="#FF6347" rx="1"/>
    <rect x="22" y="6" width="5" height="7" fill="#87CEEB" rx="1"/>
    <rect x="29" y="5" width="4" height="9" fill="#98FB98" rx="1"/>
    <rect x="-10" y="24" width="7" height="16" fill="#555" rx="2"/>
    <rect x="3" y="24" width="7" height="16" fill="#555" rx="2"/>
  </g>

  <!-- ===== SOCIAL MEDIA INFLUENCER (between lodge and skier) ===== -->
  <g transform="translate(230,370) scale(1.15)" filter="url(#shadow)">
    <rect x="-12" y="-8" width="24" height="30" fill="#C0C0C0" rx="5"/>
    <circle cx="-5" cy="2" r="1.2" fill="white" opacity="0.8"/>
    <circle cx="6" cy="10" r="1.2" fill="white" opacity="0.8"/>
    <circle cx="-3" cy="16" r="1.2" fill="white" opacity="0.8"/>
    <circle cx="7" cy="0" r="1" fill="#FFD700" opacity="0.6"/>
    <circle cx="0" cy="-20" r="12" fill="#F5C59A"/>
    <ellipse cx="0" cy="-28" rx="14" ry="10" fill="#FFD700"/>
    <ellipse cx="-8" cy="-20" rx="7" ry="9" fill="#FFD700"/>
    <ellipse cx="8" cy="-20" rx="7" ry="9" fill="#FFD700"/>
    <rect x="-9" y="-22" width="8" height="6" fill="#333" rx="2.5"/>
    <rect x="1" y="-22" width="8" height="6" fill="#333" rx="2.5"/>
    <line x1="-1" y1="-19" x2="1" y2="-19" stroke="#333" stroke-width="1"/>
    <ellipse cx="0" cy="-12" rx="3.5" ry="2" fill="#FF4081"/>
    <line x1="12" y1="0" x2="28" y2="-22" stroke="#C0C0C0" stroke-width="5" stroke-linecap="round"/>
    <rect x="22" y="-34" width="14" height="20" fill="#333" rx="2"/>
    <rect x="23" y="-32" width="12" height="16" fill="#4FC3F7" rx="1"/>
    <circle cx="29" cy="-36" r="3.5" fill="none" stroke="#FFD700" stroke-width="1.5" opacity="0.8"/>
    <rect x="-8" y="22" width="6" height="14" fill="#333" rx="2"/>
    <rect x="2" y="22" width="6" height="14" fill="#333" rx="2"/>
  </g>

  <!-- ===== GOLDEN TROPHY (floating, prominent) ===== -->
  <g transform="translate(600,270) scale(1.4)" filter="url(#trophyglow)">
    <circle cx="0" cy="0" r="32" fill="#FFD700" opacity="0.12"/>
    <circle cx="0" cy="0" r="22" fill="#FFD700" opacity="0.08"/>
    <path d="M-14,-18 L-16,-6 Q-16,10 0,15 Q16,10 16,-6 L14,-18 Z" fill="url(#trophy)" stroke="#DAA520" stroke-width="1.5"/>
    <path d="M-16,-10 Q-26,-8 -24,2 Q-22,10 -14,8" fill="none" stroke="#FFD700" stroke-width="3"/>
    <path d="M16,-10 Q26,-8 24,2 Q22,10 14,8" fill="none" stroke="#FFD700" stroke-width="3"/>
    <rect x="-4" y="15" width="8" height="10" fill="#DAA520" rx="1"/>
    <ellipse cx="0" cy="27" rx="12" ry="4" fill="#DAA520"/>
    <line x1="-7" y1="-5" x2="7" y2="-5" stroke="white" stroke-width="2" stroke-linecap="round" opacity="0.7"/>
    <g fill="#FFD700">
      <polygon points="-26,-24 -24,-22 -22,-24 -24,-26" opacity="0.8"/>
      <polygon points="26,-22 28,-20 30,-22 28,-24" opacity="0.6"/>
      <polygon points="-22,22 -20,24 -18,22 -20,20" opacity="0.5"/>
      <polygon points="22,20 24,22 26,20 24,18" opacity="0.7"/>
      <polygon points="0,-32 1,-30 2,-32 1,-34" opacity="0.9"/>
      <polygon points="-30,-4 -28,-2 -26,-4 -28,-6" opacity="0.5"/>
      <polygon points="30,-2 32,0 34,-2 32,-4" opacity="0.5"/>
    </g>
  </g>

  <!-- ===== FROZEN WATERFALL (right background) ===== -->
  <g transform="translate(680,230) scale(1.3)" opacity="0.7">
    <rect x="-10" y="-50" width="20" height="75" fill="#B0E0FF" rx="4" opacity="0.7"/>
    <rect x="-6" y="-48" width="12" height="70" fill="#D0F0FF" rx="3" opacity="0.5"/>
    <polygon points="-8,-50 -5,-50 -6.5,-62" fill="#C0E8FF" opacity="0.6"/>
    <polygon points="-1,-50 2,-50 0.5,-60" fill="#C0E8FF" opacity="0.6"/>
    <polygon points="5,-50 8,-50 6.5,-58" fill="#C0E8FF" opacity="0.6"/>
    <ellipse cx="0" cy="10" rx="6" ry="8" fill="#1A3050" opacity="0.5"/>
  </g>

  <!-- ===== OLD DAD in rocking chair (far right) ===== -->
  <g transform="translate(1140,370) scale(1.15)">
    <path d="M-20,30 Q-24,34 -18,36 Q0,40 18,36 Q24,34 20,30" fill="#6B4B2A" stroke="#5A3A1A" stroke-width="1.5"/>
    <rect x="-12" y="0" width="24" height="32" fill="#8B6B4A" rx="2"/>
    <rect x="-16" y="10" width="32" height="20" fill="#8B0000" rx="3" opacity="0.8"/>
    <line x1="-12" y1="16" x2="12" y2="16" stroke="#A02020" stroke-width="1" opacity="0.5"/>
    <line x1="-12" y1="22" x2="12" y2="22" stroke="#A02020" stroke-width="1" opacity="0.5"/>
    <circle cx="0" cy="-10" r="10" fill="#F5C59A"/>
    <ellipse cx="0" cy="-17" rx="11" ry="7" fill="#C0C0C0"/>
    <ellipse cx="-7" cy="-10" rx="5" ry="7" fill="#C0C0C0"/>
    <ellipse cx="7" cy="-10" rx="5" ry="7" fill="#C0C0C0"/>
    <line x1="-5" y1="-10" x2="-1" y2="-10" stroke="#333" stroke-width="1.5" stroke-linecap="round"/>
    <line x1="1" y1="-10" x2="5" y2="-10" stroke="#333" stroke-width="1.5" stroke-linecap="round"/>
    <path d="M-3,-6 Q0,-4 3,-6" fill="none" stroke="#8B4513" stroke-width="1" stroke-linecap="round"/>
    <rect x="10" y="6" width="12" height="16" fill="#2E4057" rx="1" transform="rotate(15,16,14)"/>
    <rect x="11" y="7" width="5" height="14" fill="#F5F0E0" rx="0.5" transform="rotate(15,13,14)"/>
    <rect x="-22" y="12" width="7" height="16" fill="#2E8B57" rx="2"/>
    <rect x="-23" y="10" width="9" height="5" fill="#228B22" rx="1"/>
  </g>

  <!-- ===== TITLE BANNER (center, prominent) ===== -->
  <g transform="translate(600,555)">
    <!-- Wider dark banner -->
    <rect x="-380" y="-42" width="760" height="84" fill="url(#titleBg)" rx="6"/>
    <rect x="-376" y="-38" width="752" height="76" fill="none" stroke="#FFD700" stroke-width="2" rx="5" opacity="0.5"/>
    <!-- Decorative corner elements -->
    <g fill="#FFD700" opacity="0.4">
      <polygon points="-370,-36 -360,-36 -370,-26"/>
      <polygon points="370,-36 360,-36 370,-26"/>
      <polygon points="-370,36 -360,36 -370,26"/>
      <polygon points="370,36 360,36 370,26"/>
    </g>
    <!-- Title -->
    <text x="0" y="-8" text-anchor="middle" font-family="'Georgia','Times New Roman',serif" font-size="38" fill="white" font-weight="bold" letter-spacing="4" filter="url(#textShadow)">THE SECRET OF</text>
    <text x="0" y="30" text-anchor="middle" font-family="'Georgia','Times New Roman',serif" font-size="30" fill="#FFD700" font-weight="bold" letter-spacing="6">SNOWPEAK RESORT</text>
  </g>

  <!-- Subtitle -->
  <g transform="translate(600,618)">
    <text x="0" y="0" text-anchor="middle" font-family="'Georgia','Times New Roman',serif" font-size="15" fill="#B0C8E0" letter-spacing="5" opacity="0.8">A TEXT ADVENTURE GAME</text>
  </g>

  <!-- Decorative snowflakes near title -->
  <g opacity="0.5">
    <g transform="translate(210,555) scale(1)" stroke="white" stroke-width="2" fill="none">
      <line x1="0" y1="-10" x2="0" y2="10"/>
      <line x1="-8.7" y1="-5" x2="8.7" y2="5"/>
      <line x1="-8.7" y1="5" x2="8.7" y2="-5"/>
      <circle cx="0" cy="-10" r="2" fill="white"/>
      <circle cx="0" cy="10" r="2" fill="white"/>
    </g>
    <g transform="translate(990,555) scale(1)" stroke="white" stroke-width="2" fill="none">
      <line x1="0" y1="-10" x2="0" y2="10"/>
      <line x1="-8.7" y1="-5" x2="8.7" y2="5"/>
      <line x1="-8.7" y1="5" x2="8.7" y2="-5"/>
      <circle cx="0" cy="-10" r="2" fill="white"/>
      <circle cx="0" cy="10" r="2" fill="white"/>
    </g>
  </g>

  <!-- Bottom gradient fade to dark -->
  <rect x="0" y="640" width="1200" height="35" fill="#0A1A3C" opacity="0.3"/>
</svg>