<svg xmlns="http://www.w3.org/2000/svg" viewBox="0 0 1200 675">
  <defs>
    <linearGradient id="sky" x1="0%" y1="0%" x2="0%" y2="100%">
      <stop offset="0%" style="stop-color:#4BA3E3"/>
      <stop offset="60%" style="stop-color:#A8D8F0"/>
      <stop offset="100%" style="stop-color:#D4EDFB"/>
    </linearGradient>
    <linearGradient id="snow" x1="0%" y1="0%" x2="0%" y2="100%">
      <stop offset="0%" style="stop-color:#F0F6FF"/>
      <stop offset="100%" style="stop-color:#D8E8F5"/>
    </linearGradient>
    <linearGradient id="mountain1" x1="0%" y1="0%" x2="0%" y2="100%">
      <stop offset="0%" style="stop-color:#7B9DBF"/>
      <stop offset="100%" style="stop-color:#5A7D9E"/>
    </linearGradient>
    <linearGradient id="mountain2" x1="0%" y1="0%" x2="0%" y2="100%">
      <stop offset="0%" style="stop-color:#6A8CAE"/>
      <stop offset="100%" style="stop-color:#4E6F8E"/>
    </linearGradient>
    <linearGradient id="jacket" x1="0%" y1="0%" x2="0%" y2="100%">
      <stop offset="0%" style="stop-color:#E84040"/>
      <stop offset="100%" style="stop-color:#C02020"/>
    </linearGradient>
    <linearGradient id="pants" x1="0%" y1="0%" x2="0%" y2="100%">
      <stop offset="0%" style="stop-color:#2878C8"/>
      <stop offset="100%" style="stop-color:#1858A8"/>
    </linearGradient>
    <linearGradient id="lodge" x1="0%" y1="0%" x2="0%" y2="100%">
      <stop offset="0%" style="stop-color:#8B6B4A"/>
      <stop offset="100%" style="stop-color:#6B4B2A"/>
    </linearGradient>
    <linearGradient id="trophy" x1="0%" y1="0%" x2="0%" y2="100%">
      <stop offset="0%" style="stop-color:#FFD700"/>
      <stop offset="50%" style="stop-color:#FFC000"/>
      <stop offset="100%" style="stop-color:#E6A800"/>
    </linearGradient>
    <filter id="shadow">
      <feDropShadow dx="2" dy="3" stdDeviation="3" flood-opacity="0.2"/>
    </filter>
    <filter id="glow">
      <feGaussianBlur stdDeviation="4" result="blur"/>
      <feMerge><feMergeNode in="blur"/><feMergeNode in="SourceGraphic"/></feMerge>
    </filter>
    <filter id="trophyglow">
      <feGaussianBlur stdDeviation="6" result="blur"/>
      <feMerge><feMergeNode in="blur"/><feMergeNode in="SourceGraphic"/></feMerge>
    </filter>
  </defs>

  <!-- Sky -->
  <rect width="1200" height="675" fill="url(#sky)"/>

  <!-- Clouds -->
  <g fill="white" opacity="0.7">
    <ellipse cx="200" cy="80" rx="80" ry="30"/>
    <ellipse cx="250" cy="70" rx="60" ry="25"/>
    <ellipse cx="160" cy="75" rx="50" ry="22"/>
    <ellipse cx="900" cy="100" rx="90" ry="32"/>
    <ellipse cx="960" cy="90" rx="65" ry="26"/>
    <ellipse cx="850" cy="95" rx="55" ry="24"/>
    <ellipse cx="550" cy="55" rx="70" ry="24"/>
    <ellipse cx="600" cy="48" rx="50" ry="20"/>
  </g>

  <!-- Far mountains -->
  <g fill="url(#mountain2)">
    <polygon points="0,350 120,180 240,300 360,160 500,280 600,200 720,310 850,170 1000,260 1200,190 1200,420 0,420"/>
  </g>
  <!-- Snow caps -->
  <g fill="white" opacity="0.85">
    <polygon points="345,165 360,160 375,168 370,175 365,170 355,178 348,172"/>
    <polygon points="835,175 850,170 865,178 860,186 852,180 845,188 838,180"/>
    <polygon points="110,185 120,180 132,188 126,196 120,190 115,195"/>
    <polygon points="590,205 600,200 612,208 606,215 600,210 595,214"/>
    <polygon points="990,265 1000,260 1012,268 1006,275 1000,270 995,274"/>
  </g>

  <!-- Near mountains -->
  <g fill="url(#mountain1)" opacity="0.7">
    <polygon points="0,420 200,280 400,380 550,260 750,350 950,240 1200,320 1200,420 0,420"/>
  </g>
  <g fill="white" opacity="0.6">
    <polygon points="540,265 550,260 562,270 556,278 550,272 545,276"/>
    <polygon points="940,245 950,240 962,248 956,255 950,250 945,253"/>
  </g>

  <!-- Snow ground -->
  <rect x="0" y="400" width="1200" height="275" fill="url(#snow)"/>
  <!-- Snow ground curve -->
  <ellipse cx="600" cy="400" rx="650" ry="30" fill="#E8F2FC"/>

  <!-- Falling snowflakes -->
  <g fill="white">
    <circle cx="100" cy="120" r="3" opacity="0.8"/>
    <circle cx="300" cy="200" r="2.5" opacity="0.6"/>
    <circle cx="500" cy="80" r="3" opacity="0.7"/>
    <circle cx="700" cy="150" r="2" opacity="0.5"/>
    <circle cx="850" cy="60" r="3" opacity="0.8"/>
    <circle cx="1050" cy="180" r="2.5" opacity="0.6"/>
    <circle cx="150" cy="300" r="2" opacity="0.4"/>
    <circle cx="400" cy="340" r="2.5" opacity="0.5"/>
    <circle cx="650" cy="290" r="3" opacity="0.6"/>
    <circle cx="1100" cy="320" r="2" opacity="0.4"/>
    <circle cx="50" cy="220" r="2" opacity="0.5"/>
    <circle cx="550" cy="170" r="2" opacity="0.6"/>
    <circle cx="950" cy="300" r="2.5" opacity="0.5"/>
    <circle cx="780" cy="50" r="2" opacity="0.7"/>
    <circle cx="220" cy="350" r="3" opacity="0.4"/>
    <circle cx="1000" cy="130" r="2" opacity="0.6"/>
    <circle cx="75" cy="450" r="2" opacity="0.3"/>
    <circle cx="350" cy="480" r="2.5" opacity="0.3"/>
    <circle cx="820" cy="430" r="2" opacity="0.3"/>
    <circle cx="1150" cy="460" r="2.5" opacity="0.3"/>
  </g>

  <!-- Lodge building (left side) -->
  <g transform="translate(80,320)" filter="url(#shadow)">
    <!-- Main structure -->
    <rect x="0" y="20" width="160" height="100" fill="url(#lodge)" rx="3"/>
    <!-- A-frame roof -->
    <polygon points="-15,20 80,-40 175,20" fill="#5A3A1A"/>
    <polygon points="-10,22 80,-34 170,22" fill="#7B5B3A"/>
    <!-- Snow on roof -->
    <polygon points="-15,20 80,-42 175,20 170,18 80,-36 -10,18" fill="white" opacity="0.9"/>
    <!-- Windows -->
    <rect x="20" y="45" width="35" height="30" fill="#FFE066" rx="2" opacity="0.85"/>
    <rect x="105" y="45" width="35" height="30" fill="#FFE066" rx="2" opacity="0.85"/>
    <!-- Window glow -->
    <rect x="22" y="47" width="31" height="26" fill="#FFF4B0" rx="1" opacity="0.5"/>
    <rect x="107" y="47" width="31" height="26" fill="#FFF4B0" rx="1" opacity="0.5"/>
    <!-- Window cross frames -->
    <line x1="37.5" y1="45" x2="37.5" y2="75" stroke="#6B4B2A" stroke-width="2"/>
    <line x1="20" y1="60" x2="55" y2="60" stroke="#6B4B2A" stroke-width="2"/>
    <line x1="122.5" y1="45" x2="122.5" y2="75" stroke="#6B4B2A" stroke-width="2"/>
    <line x1="105" y1="60" x2="140" y2="60" stroke="#6B4B2A" stroke-width="2"/>
    <!-- Door -->
    <rect x="65" y="65" width="30" height="55" fill="#4A2A0A" rx="2"/>
    <circle cx="88" cy="93" r="3" fill="#C8A040"/>
    <!-- Sign -->
    <rect x="30" y="-10" width="100" height="22" fill="#4A2A0A" rx="3"/>
    <text x="80" y="6" text-anchor="middle" font-family="'Georgia',serif" font-size="12" fill="#FFD700" font-weight="bold" letter-spacing="1">SNOWPEAK</text>
    <!-- Chimney with smoke -->
    <rect x="120" y="-25" width="20" height="35" fill="#5A3A1A"/>
    <rect x="116" y="-28" width="28" height="6" fill="#6B4B2A" rx="1"/>
    <g fill="none" stroke="white" stroke-width="2" opacity="0.5">
      <path d="M130,-30 Q125,-45 132,-55 Q138,-65 130,-80"/>
      <path d="M135,-28 Q140,-42 134,-52 Q128,-62 136,-75" opacity="0.3"/>
    </g>
  </g>

  <!-- Pine trees -->
  <g filter="url(#shadow)">
    <!-- Tree 1 -->
    <g transform="translate(280,360)">
      <rect x="-5" y="30" width="10" height="20" fill="#5A3A1A"/>
      <polygon points="0,-30 -25,10 -18,8 -30,30 -20,28 -32,50 32,50 20,28 30,30 18,8 25,10" fill="#2D7A3A"/>
      <g fill="white" opacity="0.8">
        <ellipse cx="-5" cy="10" rx="12" ry="4"/>
        <ellipse cx="8" cy="30" rx="14" ry="4"/>
        <ellipse cx="-2" cy="-10" rx="8" ry="3"/>
      </g>
    </g>
    <!-- Tree 2 -->
    <g transform="translate(330,375)">
      <rect x="-4" y="20" width="8" height="15" fill="#5A3A1A"/>
      <polygon points="0,-20 -18,5 -12,4 -22,30 22,30 12,4 18,5" fill="#28703A"/>
      <g fill="white" opacity="0.8">
        <ellipse cx="0" cy="5" rx="10" ry="3"/>
        <ellipse cx="3" cy="-8" rx="7" ry="3"/>
      </g>
    </g>
    <!-- Tree 3 (far right) -->
    <g transform="translate(1050,365)">
      <rect x="-5" y="28" width="10" height="18" fill="#5A3A1A"/>
      <polygon points="0,-28 -24,8 -16,6 -28,45 28,45 16,6 24,8" fill="#2D7A3A"/>
      <g fill="white" opacity="0.8">
        <ellipse cx="-4" cy="8" rx="11" ry="4"/>
        <ellipse cx="5" cy="28" rx="13" ry="4"/>
        <ellipse cx="0" cy="-8" rx="7" ry="3"/>
      </g>
    </g>
    <!-- Tree 4 -->
    <g transform="translate(1100,378)">
      <rect x="-4" y="18" width="8" height="14" fill="#5A3A1A"/>
      <polygon points="0,-18 -16,4 -11,3 -20,28 20,28 11,3 16,4" fill="#28703A"/>
      <g fill="white" opacity="0.8">
        <ellipse cx="0" cy="4" rx="9" ry="3"/>
        <ellipse cx="2" cy="-6" rx="6" ry="2.5"/>
      </g>
    </g>
    <!-- Extra tree near arcade -->
    <g transform="translate(960,370)">
      <rect x="-4" y="22" width="8" height="16" fill="#5A3A1A"/>
      <polygon points="0,-22 -20,6 -14,5 -24,35 24,35 14,5 20,6" fill="#2D7A3A"/>
      <g fill="white" opacity="0.8">
        <ellipse cx="0" cy="6" rx="10" ry="3"/>
        <ellipse cx="3" cy="-8" rx="7" ry="3"/>
      </g>
    </g>
  </g>

  <!-- ===== ARCADE CABINET (right side) ===== -->
  <g transform="translate(1020,410)" filter="url(#shadow)">
    <!-- Cabinet body -->
    <rect x="-25" y="-55" width="50" height="80" fill="#2A2A4A" rx="3"/>
    <!-- Screen -->
    <rect x="-18" y="-48" width="36" height="28" fill="#001800" rx="2"/>
    <!-- Screen glow -->
    <rect x="-16" y="-46" width="32" height="24" fill="#003300" rx="1"/>
    <!-- Pixel art on screen: two figures throwing snowballs -->
    <rect x="-10" y="-40" width="4" height="8" fill="#00FF00" opacity="0.9"/>
    <rect x="6" y="-38" width="4" height="8" fill="#00FF00" opacity="0.9"/>
    <circle cx="-2" cy="-36" r="2" fill="#FFFFFF" opacity="0.8"/>
    <!-- Marquee -->
    <rect x="-22" y="-55" width="44" height="10" fill="#8B0000" rx="2"/>
    <text x="0" y="-47" text-anchor="middle" font-family="monospace" font-size="6" fill="#FFD700" font-weight="bold">SNOWBALL</text>
    <!-- Controls -->
    <circle cx="-8" cy="-12" r="5" fill="#E84040"/>
    <circle cx="8" cy="-14" r="3" fill="#2878C8"/>
    <!-- Coin slot -->
    <rect x="-4" y="0" width="8" height="3" fill="#666" rx="1"/>
    <!-- Legs -->
    <rect x="-22" y="25" width="8" height="12" fill="#222"/>
    <rect x="14" y="25" width="8" height="12" fill="#222"/>
  </g>

  <!-- ===== HUSKY DOG (near lodge) ===== -->
  <g transform="translate(270,445)" filter="url(#shadow)">
    <!-- Body -->
    <ellipse cx="0" cy="0" rx="22" ry="14" fill="#B0B8C8"/>
    <!-- White belly -->
    <ellipse cx="0" cy="4" rx="16" ry="8" fill="white"/>
    <!-- Head -->
    <circle cx="22" cy="-10" r="12" fill="#B0B8C8"/>
    <!-- Face mask -->
    <ellipse cx="25" cy="-6" rx="8" ry="7" fill="white"/>
    <!-- Eyes -->
    <circle cx="27" cy="-13" r="2.5" fill="#4488CC"/>
    <circle cx="27" cy="-13" r="1.2" fill="#222"/>
    <!-- Nose -->
    <ellipse cx="32" cy="-8" rx="3" ry="2" fill="#333"/>
    <!-- Ears -->
    <polygon points="16,-20 12,-30 20,-22" fill="#888"/>
    <polygon points="24,-20 20,-30 28,-22" fill="#888"/>
    <!-- Ear insides -->
    <polygon points="17,-21 14,-28 20,-22" fill="#C0A0A0"/>
    <polygon points="25,-21 22,-28 28,-22" fill="#C0A0A0"/>
    <!-- Tail (curled up) -->
    <path d="M-20,-4 Q-30,-20 -18,-24" fill="none" stroke="#B0B8C8" stroke-width="6" stroke-linecap="round"/>
    <path d="M-20,-4 Q-30,-20 -18,-24" fill="none" stroke="white" stroke-width="3" stroke-linecap="round" opacity="0.5"/>
    <!-- Legs -->
    <rect x="-12" y="10" width="6" height="14" fill="#B0B8C8" rx="3"/>
    <rect x="6" y="10" width="6" height="14" fill="#B0B8C8" rx="3"/>
    <!-- Paws -->
    <ellipse cx="-9" cy="24" rx="4" ry="3" fill="white"/>
    <ellipse cx="9" cy="24" rx="4" ry="3" fill="white"/>
    <!-- Tongue -->
    <ellipse cx="34" cy="-4" rx="3" ry="4" fill="#FF6B8A"/>
  </g>

  <!-- ===== CARTOON SKIER (center-left) ===== -->
  <g transform="translate(520,415)" filter="url(#shadow)">
    <!-- Skis -->
    <g fill="#3090E0" stroke="#2070B0" stroke-width="1.5">
      <rect x="-55" y="60" width="110" height="7" rx="3.5" transform="rotate(-5,0,63)"/>
    </g>
    <ellipse cx="-58" cy="57" rx="7" ry="4" fill="#3090E0" transform="rotate(-15,-58,57)"/>

    <!-- Left leg -->
    <rect x="-18" y="22" width="15" height="38" fill="url(#pants)" rx="5" transform="rotate(3,-10,40)"/>
    <!-- Right leg -->
    <rect x="3" y="22" width="15" height="38" fill="url(#pants)" rx="5" transform="rotate(-3,10,40)"/>
    <!-- Boots -->
    <rect x="-22" y="52" width="20" height="12" fill="#333" rx="3"/>
    <rect x="2" y="52" width="20" height="12" fill="#333" rx="3"/>

    <!-- Body / jacket -->
    <rect x="-24" y="-22" width="48" height="48" fill="url(#jacket)" rx="8"/>
    <line x1="0" y1="-18" x2="0" y2="22" stroke="#A01818" stroke-width="1.5"/>
    <rect x="-17" y="-24" width="34" height="7" fill="#C02020" rx="3"/>

    <!-- Arms with poles -->
    <g transform="rotate(-35,-24,-8)">
      <rect x="-44" y="-15" width="26" height="12" fill="url(#jacket)" rx="5"/>
      <ellipse cx="-47" cy="-9" rx="7" ry="6" fill="#F0A030"/>
      <line x1="-47" y1="-9" x2="-64" y2="62" stroke="#C0C0C0" stroke-width="2.5" stroke-linecap="round"/>
      <circle cx="-64" cy="62" r="5" fill="none" stroke="#C0C0C0" stroke-width="1.5"/>
    </g>
    <g transform="rotate(35,24,-8)">
      <rect x="18" y="-15" width="26" height="12" fill="url(#jacket)" rx="5"/>
      <ellipse cx="47" cy="-9" rx="7" ry="6" fill="#F0A030"/>
      <line x1="47" y1="-9" x2="64" y2="62" stroke="#C0C0C0" stroke-width="2.5" stroke-linecap="round"/>
      <circle cx="64" cy="62" r="5" fill="none" stroke="#C0C0C0" stroke-width="1.5"/>
    </g>

    <!-- Head -->
    <circle cx="0" cy="-40" r="20" fill="#F5C59A"/>
    <!-- Helmet -->
    <ellipse cx="0" cy="-48" rx="22" ry="15" fill="#2878C8"/>
    <ellipse cx="0" cy="-46" rx="24" ry="10" fill="#2070B0"/>
    <!-- Goggles -->
    <rect x="-17" y="-46" width="34" height="14" fill="#222" rx="7"/>
    <rect x="-14" y="-44" width="12" height="10" fill="#50C8FF" rx="4" opacity="0.8"/>
    <rect x="2" y="-44" width="12" height="10" fill="#50C8FF" rx="4" opacity="0.8"/>
    <rect x="-12" y="-43" width="5" height="3" fill="white" rx="1.5" opacity="0.5"/>
    <rect x="4" y="-43" width="5" height="3" fill="white" rx="1.5" opacity="0.5"/>
    <!-- Smile -->
    <path d="M-10,-28 Q0,-20 10,-28" fill="none" stroke="#8B4513" stroke-width="2" stroke-linecap="round"/>
    <path d="M-7,-28 Q0,-22 7,-28" fill="white"/>
    <!-- Cheeks -->
    <circle cx="-13" cy="-30" r="4" fill="#FF8888" opacity="0.4"/>
    <circle cx="13" cy="-30" r="4" fill="#FF8888" opacity="0.4"/>
    <!-- Scarf -->
    <rect x="-18" y="-24" width="36" height="7" fill="#FFD700" rx="3"/>
    <rect x="12" y="-24" width="10" height="16" fill="#FFD700" rx="3" transform="rotate(15,17,-16)"/>
  </g>

  <!-- Snow spray from skier -->
  <g transform="translate(520,478)" fill="white" opacity="0.6">
    <ellipse cx="-25" cy="0" rx="16" ry="5" transform="rotate(-10)"/>
    <ellipse cx="25" cy="0" rx="16" ry="5" transform="rotate(10)"/>
  </g>

  <!-- Slalom gates -->
  <g>
    <g transform="translate(400,445)">
      <line x1="0" y1="0" x2="0" y2="-36" stroke="#E84040" stroke-width="3.5" stroke-linecap="round"/>
      <polygon points="-2,-36 -16,-31 -2,-25" fill="#E84040"/>
    </g>
    <g transform="translate(680,450)">
      <line x1="0" y1="0" x2="0" y2="-36" stroke="#2878C8" stroke-width="3.5" stroke-linecap="round"/>
      <polygon points="2,-36 16,-31 2,-25" fill="#2878C8"/>
    </g>
  </g>

  <!-- ===== SNOWBALL FIGHT SCENE (right-center) ===== -->
  <!-- Snowball thrower (small figure) -->
  <g transform="translate(820,430)">
    <!-- Body -->
    <rect x="-8" y="-5" width="16" height="22" fill="#3CB371" rx="4"/>
    <!-- Head -->
    <circle cx="0" cy="-14" r="9" fill="#F5C59A"/>
    <!-- Beanie -->
    <ellipse cx="0" cy="-20" rx="10" ry="7" fill="#E84040"/>
    <rect x="-10" y="-17" width="20" height="4" fill="#C02020" rx="2"/>
    <!-- Pom-pom -->
    <circle cx="0" cy="-25" r="4" fill="white"/>
    <!-- Eyes -->
    <circle cx="-3" cy="-15" r="1.5" fill="#333"/>
    <circle cx="3" cy="-15" r="1.5" fill="#333"/>
    <!-- Smile -->
    <path d="M-4,-10 Q0,-7 4,-10" fill="none" stroke="#8B4513" stroke-width="1.5" stroke-linecap="round"/>
    <!-- Throwing arm -->
    <line x1="8" y1="0" x2="22" y2="-14" stroke="#3CB371" stroke-width="5" stroke-linecap="round"/>
    <!-- Glove -->
    <circle cx="22" cy="-14" r="4" fill="#FFD700"/>
    <!-- Legs -->
    <rect x="-6" y="17" width="5" height="12" fill="url(#pants)" rx="2"/>
    <rect x="1" y="17" width="5" height="12" fill="url(#pants)" rx="2"/>
    <!-- Boots -->
    <rect x="-7" y="27" width="7" height="5" fill="#333" rx="2"/>
    <rect x="0" y="27" width="7" height="5" fill="#333" rx="2"/>
  </g>

  <!-- Flying snowballs -->
  <g filter="url(#glow)">
    <circle cx="855" cy="415" r="6" fill="white" stroke="#D0E0F0" stroke-width="1"/>
    <circle cx="880" cy="408" r="5" fill="white" stroke="#D0E0F0" stroke-width="1" opacity="0.8"/>
    <circle cx="905" cy="418" r="4" fill="white" stroke="#D0E0F0" stroke-width="1" opacity="0.6"/>
  </g>

  <!-- Snowball target figure (getting hit!) -->
  <g transform="translate(920,432)">
    <!-- Body -->
    <rect x="-8" y="-5" width="16" height="22" fill="#9370DB" rx="4"/>
    <!-- Head -->
    <circle cx="0" cy="-14" r="9" fill="#F5C59A"/>
    <!-- Winter hat -->
    <ellipse cx="0" cy="-20" rx="10" ry="7" fill="#4169E1"/>
    <rect x="-10" y="-17" width="20" height="4" fill="#3058C0" rx="2"/>
    <!-- Eyes (surprised!) -->
    <circle cx="-3" cy="-15" r="2" fill="#333"/>
    <circle cx="3" cy="-15" r="2" fill="#333"/>
    <!-- Surprised mouth -->
    <circle cx="0" cy="-9" r="3" fill="#8B4513" opacity="0.7"/>
    <!-- Splat on body! -->
    <circle cx="-5" cy="2" r="7" fill="white" opacity="0.8"/>
    <circle cx="-8" cy="-1" r="3" fill="white" opacity="0.6"/>
    <circle cx="-2" cy="6" r="3" fill="white" opacity="0.6"/>
    <!-- Arms flailing -->
    <line x1="-8" y1="0" x2="-20" y2="-10" stroke="#9370DB" stroke-width="5" stroke-linecap="round"/>
    <line x1="8" y1="0" x2="20" y2="-8" stroke="#9370DB" stroke-width="5" stroke-linecap="round"/>
    <!-- Legs -->
    <rect x="-6" y="17" width="5" height="12" fill="#555" rx="2"/>
    <rect x="1" y="17" width="5" height="12" fill="#555" rx="2"/>
  </g>

  <!-- ===== HENRY'S MOM (Snack Mom, far left) ===== -->
  <g transform="translate(55,448)" filter="url(#shadow)">
    <!-- Puffer jacket body -->
    <rect x="-12" y="-8" width="24" height="28" fill="#E06090" rx="6"/>
    <!-- Puffy segments -->
    <ellipse cx="0" cy="-2" rx="13" ry="5" fill="#E870A0" opacity="0.5"/>
    <ellipse cx="0" cy="8" rx="13" ry="5" fill="#E870A0" opacity="0.5"/>
    <!-- Head -->
    <circle cx="0" cy="-18" r="11" fill="#F5C59A"/>
    <!-- Hair -->
    <ellipse cx="0" cy="-24" rx="12" ry="8" fill="#8B5E3C"/>
    <ellipse cx="-8" cy="-18" rx="5" ry="8" fill="#8B5E3C"/>
    <ellipse cx="8" cy="-18" rx="5" ry="8" fill="#8B5E3C"/>
    <!-- Eyes -->
    <circle cx="-3" cy="-18" r="1.5" fill="#333"/>
    <circle cx="3" cy="-18" r="1.5" fill="#333"/>
    <!-- Warm smile -->
    <path d="M-5,-13 Q0,-9 5,-13" fill="none" stroke="#8B4513" stroke-width="1.5" stroke-linecap="round"/>
    <!-- Cheeks -->
    <circle cx="-7" cy="-14" r="3" fill="#FF8888" opacity="0.4"/>
    <circle cx="7" cy="-14" r="3" fill="#FF8888" opacity="0.4"/>
    <!-- Arms holding tote bags -->
    <line x1="-12" y1="2" x2="-22" y2="12" stroke="#E06090" stroke-width="5" stroke-linecap="round"/>
    <line x1="12" y1="2" x2="22" y2="12" stroke="#E06090" stroke-width="5" stroke-linecap="round"/>
    <!-- Tote bag left -->
    <rect x="-30" y="8" width="14" height="16" fill="#4CAF50" rx="2"/>
    <line x1="-28" y1="8" x2="-24" y2="2" stroke="#4CAF50" stroke-width="2"/>
    <line x1="-20" y1="8" x2="-22" y2="2" stroke="#4CAF50" stroke-width="2"/>
    <!-- Tote bag right -->
    <rect x="16" y="6" width="14" height="16" fill="#FF9800" rx="2"/>
    <line x1="18" y1="6" x2="20" y2="0" stroke="#FF9800" stroke-width="2"/>
    <line x1="28" y1="6" x2="26" y2="0" stroke="#FF9800" stroke-width="2"/>
    <!-- Snacks peeking out -->
    <rect x="-28" y="6" width="4" height="6" fill="#FFD700" rx="1"/>
    <rect x="-24" y="4" width="3" height="8" fill="#FF6347" rx="1"/>
    <rect x="18" y="4" width="4" height="6" fill="#87CEEB" rx="1"/>
    <rect x="24" y="3" width="3" height="8" fill="#98FB98" rx="1"/>
    <!-- Legs -->
    <rect x="-8" y="20" width="6" height="14" fill="#555" rx="2"/>
    <rect x="2" y="20" width="6" height="14" fill="#555" rx="2"/>
  </g>

  <!-- ===== SOCIAL MEDIA INFLUENCER (left of center) ===== -->
  <g transform="translate(380,438)" filter="url(#shadow)">
    <!-- Sequined jacket -->
    <rect x="-10" y="-6" width="20" height="26" fill="#C0C0C0" rx="4"/>
    <!-- Sparkle effect on jacket -->
    <circle cx="-4" cy="2" r="1" fill="white" opacity="0.8"/>
    <circle cx="5" cy="8" r="1" fill="white" opacity="0.8"/>
    <circle cx="-2" cy="14" r="1" fill="white" opacity="0.8"/>
    <circle cx="6" cy="0" r="0.8" fill="#FFD700" opacity="0.6"/>
    <!-- Head -->
    <circle cx="0" cy="-16" r="10" fill="#F5C59A"/>
    <!-- Big hair -->
    <ellipse cx="0" cy="-22" rx="12" ry="9" fill="#FFD700"/>
    <ellipse cx="-7" cy="-16" rx="6" ry="8" fill="#FFD700"/>
    <ellipse cx="7" cy="-16" rx="6" ry="8" fill="#FFD700"/>
    <!-- Sunglasses -->
    <rect x="-8" y="-18" width="7" height="5" fill="#333" rx="2"/>
    <rect x="1" y="-18" width="7" height="5" fill="#333" rx="2"/>
    <line x1="-1" y1="-16" x2="1" y2="-16" stroke="#333" stroke-width="1"/>
    <!-- Glossy lips -->
    <ellipse cx="0" cy="-10" rx="3" ry="1.5" fill="#FF4081"/>
    <!-- Phone held up (selfie) -->
    <line x1="10" y1="0" x2="24" y2="-18" stroke="#C0C0C0" stroke-width="4" stroke-linecap="round"/>
    <rect x="18" y="-28" width="12" height="18" fill="#333" rx="2"/>
    <rect x="19" y="-26" width="10" height="14" fill="#4FC3F7" rx="1"/>
    <!-- Ring light on phone -->
    <circle cx="24" cy="-30" r="3" fill="none" stroke="#FFD700" stroke-width="1.5" opacity="0.8"/>
    <!-- Legs -->
    <rect x="-7" y="20" width="5" height="12" fill="#333" rx="2"/>
    <rect x="2" y="20" width="5" height="12" fill="#333" rx="2"/>
    <!-- Heeled boots -->
    <rect x="-8" y="30" width="7" height="4" fill="#333" rx="1"/>
    <rect x="1" y="30" width="7" height="4" fill="#333" rx="1"/>
  </g>

  <!-- ===== GOLDEN SKI TROPHY (floating, center-top area) ===== -->
  <g transform="translate(600,360)" filter="url(#trophyglow)">
    <!-- Glow aura -->
    <circle cx="0" cy="0" r="28" fill="#FFD700" opacity="0.15"/>
    <circle cx="0" cy="0" r="20" fill="#FFD700" opacity="0.1"/>
    <!-- Trophy cup -->
    <path d="M-12,-15 L-14,-5 Q-14,8 0,12 Q14,8 14,-5 L12,-15 Z" fill="url(#trophy)" stroke="#DAA520" stroke-width="1"/>
    <!-- Trophy handles -->
    <path d="M-14,-8 Q-22,-6 -20,2 Q-18,8 -12,6" fill="none" stroke="#FFD700" stroke-width="2.5"/>
    <path d="M14,-8 Q22,-6 20,2 Q18,8 12,6" fill="none" stroke="#FFD700" stroke-width="2.5"/>
    <!-- Stem -->
    <rect x="-3" y="12" width="6" height="8" fill="#DAA520" rx="1"/>
    <!-- Base -->
    <ellipse cx="0" cy="22" rx="10" ry="3" fill="#DAA520"/>
    <!-- Ski emblem on trophy -->
    <line x1="-6" y1="-4" x2="6" y2="-4" stroke="white" stroke-width="1.5" stroke-linecap="round" opacity="0.7"/>
    <!-- Sparkles around trophy -->
    <g fill="#FFD700">
      <polygon points="-22,-20 -20,-18 -18,-20 -20,-22" opacity="0.8"/>
      <polygon points="22,-18 24,-16 26,-18 24,-20" opacity="0.6"/>
      <polygon points="-18,18 -16,20 -14,18 -16,16" opacity="0.5"/>
      <polygon points="18,16 20,18 22,16 20,14" opacity="0.7"/>
      <polygon points="0,-28 1,-26 2,-28 1,-30" opacity="0.9"/>
    </g>
  </g>

  <!-- ===== OLD DAD in rocking chair (near cabin/right area) ===== -->
  <g transform="translate(1140,440)">
    <!-- Rocking chair base -->
    <path d="M-18,28 Q-22,32 -16,34 Q0,38 16,34 Q22,32 18,28" fill="#6B4B2A" stroke="#5A3A1A" stroke-width="1.5"/>
    <!-- Chair back -->
    <rect x="-10" y="-2" width="20" height="30" fill="#8B6B4A" rx="2"/>
    <!-- Blanket -->
    <rect x="-14" y="8" width="28" height="18" fill="#8B0000" rx="3" opacity="0.8"/>
    <line x1="-10" y1="14" x2="10" y2="14" stroke="#A02020" stroke-width="1" opacity="0.5"/>
    <line x1="-10" y1="20" x2="10" y2="20" stroke="#A02020" stroke-width="1" opacity="0.5"/>
    <!-- Head -->
    <circle cx="0" cy="-10" r="9" fill="#F5C59A"/>
    <!-- Silver hair -->
    <ellipse cx="0" cy="-16" rx="10" ry="6" fill="#C0C0C0"/>
    <ellipse cx="-6" cy="-10" rx="4" ry="6" fill="#C0C0C0"/>
    <ellipse cx="6" cy="-10" rx="4" ry="6" fill="#C0C0C0"/>
    <!-- Eyes (squinty content) -->
    <line x1="-4" y1="-10" x2="-1" y2="-10" stroke="#333" stroke-width="1.5" stroke-linecap="round"/>
    <line x1="1" y1="-10" x2="4" y2="-10" stroke="#333" stroke-width="1.5" stroke-linecap="round"/>
    <!-- Slight smile -->
    <path d="M-3,-6 Q0,-4 3,-6" fill="none" stroke="#8B4513" stroke-width="1" stroke-linecap="round"/>
    <!-- Book -->
    <rect x="8" y="4" width="10" height="14" fill="#2E4057" rx="1" transform="rotate(15,13,11)"/>
    <rect x="9" y="5" width="4" height="12" fill="#F5F0E0" rx="0.5" transform="rotate(15,11,11)"/>
    <!-- Thermos -->
    <rect x="-20" y="10" width="6" height="14" fill="#2E8B57" rx="2"/>
    <rect x="-21" y="8" width="8" height="4" fill="#228B22" rx="1"/>
  </g>

  <!-- ===== FROZEN WATERFALL (background element) ===== -->
  <g transform="translate(700,300)" opacity="0.6">
    <!-- Ice cliff -->
    <rect x="-8" y="-40" width="16" height="60" fill="#B0E0FF" rx="3" opacity="0.7"/>
    <rect x="-5" y="-38" width="10" height="56" fill="#D0F0FF" rx="2" opacity="0.5"/>
    <!-- Icicles -->
    <polygon points="-6,-40 -4,-40 -5,-50" fill="#C0E8FF" opacity="0.6"/>
    <polygon points="0,-40 2,-40 1,-48" fill="#C0E8FF" opacity="0.6"/>
    <polygon points="4,-40 6,-40 5,-46" fill="#C0E8FF" opacity="0.6"/>
    <!-- Cave opening hint -->
    <ellipse cx="0" cy="8" rx="5" ry="7" fill="#1A3050" opacity="0.4"/>
  </g>

  <!-- ===== TITLE BANNER ===== -->
  <g transform="translate(600,580)">
    <!-- Banner background -->
    <rect x="-300" y="-34" width="600" height="68" fill="#1A3A5C" rx="8" opacity="0.9"/>
    <rect x="-296" y="-30" width="592" height="60" fill="none" stroke="#FFD700" stroke-width="2" rx="6" opacity="0.6"/>
    <!-- Title text -->
    <text x="0" y="-5" text-anchor="middle" font-family="'Georgia','Times New Roman',serif" font-size="36" fill="white" font-weight="bold" letter-spacing="3">THE SECRET OF</text>
    <text x="0" y="28" text-anchor="middle" font-family="'Georgia','Times New Roman',serif" font-size="28" fill="#FFD700" font-weight="bold" letter-spacing="5">SNOWPEAK RESORT</text>
  </g>

  <!-- Decorative snowflake accents near title -->
  <g fill="white" opacity="0.6">
    <g transform="translate(290,580) scale(0.8)" stroke="white" stroke-width="1.5" fill="none">
      <line x1="0" y1="-8" x2="0" y2="8"/>
      <line x1="-7" y1="-4" x2="7" y2="4"/>
      <line x1="-7" y1="4" x2="7" y2="-4"/>
    </g>
    <g transform="translate(910,580) scale(0.8)" stroke="white" stroke-width="1.5" fill="none">
      <line x1="0" y1="-8" x2="0" y2="8"/>
      <line x1="-7" y1="-4" x2="7" y2="4"/>
      <line x1="-7" y1="4" x2="7" y2="-4"/>
    </g>
  </g>

  <!-- Subtitle -->
  <g transform="translate(600,635)">
    <text x="0" y="0" text-anchor="middle" font-family="'Georgia','Times New Roman',serif" font-size="14" fill="#4A6A8A" letter-spacing="4" opacity="0.7">A TEXT ADVENTURE GAME</text>
  </g>
</svg>
