<svg xmlns="http://www.w3.org/2000/svg" xmlns:xlink="http://www.w3.org/1999/xlink" viewBox="0 0 1200 675" width="1200" height="675">
  <defs>
    <linearGradient id="sky" x1="0%" y1="0%" x2="0%" y2="100%">
      <stop offset="0%" style="stop-color:#4BA3E3"/>
      <stop offset="100%" style="stop-color:#A8D8F0"/>
    </linearGradient>
    <linearGradient id="snow" x1="0%" y1="0%" x2="0%" y2="100%">
      <stop offset="0%" style="stop-color:#E8F2FC"/>
      <stop offset="100%" style="stop-color:#C8D8E8"/>
    </linearGradient>
    <linearGradient id="lodge" x1="0%" y1="0%" x2="0%" y2="100%">
      <stop offset="0%" style="stop-color:#8B6B4A"/>
      <stop offset="100%" style="stop-color:#6B4B2A"/>
    </linearGradient>
    <linearGradient id="trophy" x1="0%" y1="0%" x2="0%" y2="100%">
      <stop offset="0%" style="stop-color:#FFD700"/>
      <stop offset="50%" style="stop-color:#FFC000"/>
      <stop offset="100%" style="stop-color:#E6A800"/>
    </linearGradient>
    <linearGradient id="neonPink" x1="0%" y1="0%" x2="0%" y2="100%">
      <stop offset="0%" style="stop-color:#FF6EC7"/>
      <stop offset="100%" style="stop-color:#D03090"/>
    </linearGradient>
    <linearGradient id="neonBlue" x1="0%" y1="0%" x2="0%" y2="100%">
      <stop offset="0%" style="stop-color:#00E5FF"/>
      <stop offset="100%" style="stop-color:#0080FF"/>
    </linearGradient>
    <linearGradient id="neonGreen" x1="0%" y1="0%" x2="0%" y2="100%">
      <stop offset="0%" style="stop-color:#39FF14"/>
      <stop offset="100%" style="stop-color:#00C800"/>
    </linearGradient>
    <linearGradient id="arcadeFloor" x1="0%" y1="0%" x2="0%" y2="100%">
      <stop offset="0%" style="stop-color:#1a1a2e"/>
      <stop offset="100%" style="stop-color:#0a0a18"/>
    </linearGradient>
    <linearGradient id="epicBg" x1="0%" y1="0%" x2="0%" y2="100%">
      <stop offset="0%" style="stop-color:#0a1628"/>
      <stop offset="30%" style="stop-color:#0f2040"/>
      <stop offset="100%" style="stop-color:#060610"/>
    </linearGradient>
    <filter id="glow">
      <feGaussianBlur stdDeviation="6" result="blur"/>
      <feMerge><feMergeNode in="blur"/><feMergeNode in="SourceGraphic"/></feMerge>
    </filter>
    <filter id="bigGlow">
      <feGaussianBlur stdDeviation="10" result="blur"/>
      <feMerge><feMergeNode in="blur"/><feMergeNode in="SourceGraphic"/></feMerge>
    </filter>
    <filter id="neonGlow">
      <feGaussianBlur stdDeviation="5" result="blur"/>
      <feMerge><feMergeNode in="blur"/><feMergeNode in="blur"/><feMergeNode in="SourceGraphic"/></feMerge>
    </filter>
    <filter id="shadow">
      <feDropShadow dx="2" dy="3" stdDeviation="4" flood-opacity="0.4"/>
    </filter>
    <filter id="textShadow">
      <feDropShadow dx="0" dy="2" stdDeviation="4" flood-color="#000" flood-opacity="0.9"/>
    </filter>
    <!-- Circular clip for character photos -->
    <clipPath id="photoClip1"><circle cx="200" cy="330" r="90"/></clipPath>
    <clipPath id="photoClip2"><circle cx="450" cy="330" r="90"/></clipPath>
    <clipPath id="photoClip3"><circle cx="700" cy="330" r="90"/></clipPath>
    <clipPath id="photoClip4"><circle cx="950" cy="330" r="90"/></clipPath>
  </defs>

  <!-- ============================================ -->
  <!-- SCENE 0: BLACK + TAGLINE (0s - 2.5s)        -->
  <!-- ============================================ -->
  <g id="scene0">
    <rect width="1200" height="675" fill="black"/>
    <g fill="white" opacity="0">
      <animate attributeName="opacity" values="0;0.5;0.5;0" keyTimes="0;0.15;0.7;1" dur="2.5s" fill="freeze"/>
      <circle cx="200" cy="80" r="2"><animate attributeName="cy" values="80;500" dur="4s" repeatCount="indefinite"/></circle>
      <circle cx="600" cy="30" r="2.5"><animate attributeName="cy" values="30;450" dur="3s" repeatCount="indefinite"/></circle>
      <circle cx="1000" cy="120" r="2"><animate attributeName="cy" values="120;540" dur="5s" repeatCount="indefinite"/></circle>
    </g>
    <text x="600" y="340" text-anchor="middle" font-family="'Georgia',serif" font-size="28" fill="white" opacity="0" letter-spacing="6">
      A mystery hidden in snow...
      <animate attributeName="opacity" values="0;1;1;0" keyTimes="0;0.15;0.65;1" dur="2.5s" fill="freeze"/>
    </text>
    <animate attributeName="opacity" values="1;1;0" keyTimes="0;0.85;1" dur="2.8s" fill="freeze"/>
  </g>

  <!-- ============================================ -->
  <!-- SCENE 1: MOUNTAIN + LODGE (2.5s - 6s)       -->
  <!-- ============================================ -->
  <g id="scene1" opacity="0">
    <animate attributeName="opacity" values="0;0;1;1;0" keyTimes="0;0.35;0.4;0.88;1" dur="6.5s" fill="freeze"/>

    <rect width="1200" height="675" fill="url(#sky)"/>
    <g fill="white" opacity="0.6">
      <ellipse cx="250" cy="80" rx="80" ry="28"><animate attributeName="cx" values="250;270" dur="6s"/></ellipse>
      <ellipse cx="800" cy="90" rx="70" ry="25"><animate attributeName="cx" values="800;815" dur="6s"/></ellipse>
    </g>
    <polygon points="0,350 150,190 300,310 450,160 600,280 750,200 900,310 1050,170 1200,250 1200,420 0,420" fill="#6A8CAE"/>
    <g fill="white" opacity="0.7">
      <polygon points="435,165 450,160 465,172 460,180 452,174 445,182 438,174"/>
      <polygon points="1035,175 1050,170 1065,182 1060,190 1052,184 1045,190"/>
    </g>
    <rect x="0" y="400" width="1200" height="275" fill="url(#snow)"/>
    <ellipse cx="600" cy="400" rx="650" ry="30" fill="#D8E8F5"/>

    <!-- Lodge -->
    <g transform="translate(140,330)" filter="url(#shadow)">
      <rect x="0" y="20" width="160" height="100" fill="url(#lodge)" rx="3"/>
      <polygon points="-15,20 80,-40 175,20" fill="#5A3A1A"/>
      <polygon points="-10,22 80,-34 170,22" fill="#7B5B3A"/>
      <polygon points="-15,20 80,-42 175,20 170,18 80,-36 -10,18" fill="white" opacity="0.9"/>
      <rect x="20" y="48" width="35" height="28" fill="#FFE066" rx="2">
        <animate attributeName="opacity" values="0.7;1;0.7" dur="1.5s" repeatCount="indefinite"/>
      </rect>
      <rect x="105" y="48" width="35" height="28" fill="#FFE066" rx="2">
        <animate attributeName="opacity" values="1;0.7;1" dur="2s" repeatCount="indefinite"/>
      </rect>
      <rect x="65" y="68" width="30" height="52" fill="#4A2A0A" rx="2"/>
      <rect x="30" y="-10" width="100" height="22" fill="#4A2A0A" rx="3"/>
      <text x="80" y="6" text-anchor="middle" font-family="'Georgia',serif" font-size="12" fill="#FFD700" font-weight="bold" letter-spacing="1">SNOWPEAK</text>
      <rect x="125" y="-25" width="18" height="35" fill="#5A3A1A"/>
      <g fill="none" stroke="white" stroke-width="2" opacity="0.5">
        <path d="M134,-28 Q129,-42 136,-52 Q142,-62 134,-75">
          <animate attributeName="d" values="M134,-28 Q129,-42 136,-52 Q142,-62 134,-75;M134,-28 Q139,-44 132,-54 Q126,-64 134,-78;M134,-28 Q129,-42 136,-52 Q142,-62 134,-75" dur="3s" repeatCount="indefinite"/>
        </path>
      </g>
    </g>

    <!-- Skier zooming right -->
    <g>
      <animateTransform attributeName="transform" type="translate" values="1300,430;550,430" dur="4.5s" fill="freeze" begin="2.8s" calcMode="spline" keySplines="0.3 0 0.1 1"/>
      <rect x="-45" y="48" width="90" height="6" rx="3" fill="#3090E0" transform="rotate(-5,0,51)"/>
      <rect x="-18" y="16" width="14" height="32" fill="#2878C8" rx="4"/>
      <rect x="4" y="16" width="14" height="32" fill="#2878C8" rx="4"/>
      <rect x="-22" y="-18" width="44" height="38" fill="#E84040" rx="7"/>
      <circle cx="0" cy="-32" r="16" fill="#F5C59A"/>
      <ellipse cx="0" cy="-39" rx="18" ry="11" fill="#2878C8"/>
      <rect x="-13" y="-38" width="26" height="10" fill="#222" rx="5"/>
      <rect x="-10" y="-36" width="9" height="7" fill="#50C8FF" rx="3" opacity="0.8"/>
      <rect x="1" y="-36" width="9" height="7" fill="#50C8FF" rx="3" opacity="0.8"/>
      <path d="M-7,-22 Q0,-16 7,-22" fill="white"/>
      <rect x="-14" y="-19" width="28" height="5" fill="#FFD700" rx="2"/>
    </g>
    <g fill="white" opacity="0.4">
      <circle cx="100" cy="100" r="2"><animate attributeName="cy" values="100;700" dur="3.5s" repeatCount="indefinite"/></circle>
      <circle cx="400" cy="50" r="2.5"><animate attributeName="cy" values="50;700" dur="4s" repeatCount="indefinite"/></circle>
      <circle cx="700" cy="150" r="2"><animate attributeName="cy" values="150;750" dur="5s" repeatCount="indefinite"/></circle>
      <circle cx="1050" cy="80" r="2"><animate attributeName="cy" values="80;700" dur="3s" repeatCount="indefinite"/></circle>
    </g>
  </g>

  <!-- ============================================ -->
  <!-- SCENE 2: CHARACTER PHOTOS (6s - 12s)         -->
  <!-- ============================================ -->
  <g id="scene2" opacity="0">
    <animate attributeName="opacity" values="0;0;1;1;1;0" keyTimes="0;0.46;0.5;0.9;0.95;1" dur="12.8s" fill="freeze"/>

    <rect width="1200" height="675" fill="#0a1628"/>

    <text x="600" y="100" text-anchor="middle" font-family="'Georgia',serif" font-size="30" fill="#FFD700" opacity="0" letter-spacing="5" filter="url(#textShadow)">
      Meet the characters
      <animate attributeName="opacity" values="0;0;1;1" keyTimes="0;0.48;0.54;1" dur="12.5s" fill="freeze"/>
    </text>

    <!-- Photo 1: Angry Boss -->
    <g opacity="0">
      <animate attributeName="opacity" values="0;0;1;1" keyTimes="0;0.52;0.58;1" dur="12.5s" fill="freeze"/>
      <circle cx="200" cy="330" r="95" fill="none" stroke="#FF6B6B" stroke-width="3" opacity="0.6"/>
      <image href="boss.jpg" x="110" y="240" width="180" height="180" clip-path="url(#photoClip1)" preserveAspectRatio="xMidYMid slice"/>
      <text x="200" y="455" text-anchor="middle" font-family="'Georgia',serif" font-size="16" fill="#FF6B6B" letter-spacing="2">ANGRY BOSS</text>
      <text x="200" y="478" text-anchor="middle" font-family="'Georgia',serif" font-size="11" fill="#8899aa" letter-spacing="1">"This resort is a DISASTER!"</text>
    </g>

    <!-- Photo 2: Mr Smiles -->
    <g opacity="0">
      <animate attributeName="opacity" values="0;0;1;1" keyTimes="0;0.57;0.63;1" dur="12.5s" fill="freeze"/>
      <circle cx="450" cy="330" r="95" fill="none" stroke="#6BB5FF" stroke-width="3" opacity="0.6"/>
      <image href="mistersmiles.jpg" x="360" y="240" width="180" height="180" clip-path="url(#photoClip2)" preserveAspectRatio="xMidYMid slice"/>
      <text x="450" y="455" text-anchor="middle" font-family="'Georgia',serif" font-size="16" fill="#6BB5FF" letter-spacing="2">MR SMILES</text>
      <text x="450" y="478" text-anchor="middle" font-family="'Georgia',serif" font-size="11" fill="#8899aa" letter-spacing="1">"Wanna hear a secret?"</text>
    </g>

    <!-- Photo 3: Coach Joe -->
    <g opacity="0">
      <animate attributeName="opacity" values="0;0;1;1" keyTimes="0;0.62;0.68;1" dur="12.5s" fill="freeze"/>
      <circle cx="700" cy="330" r="95" fill="none" stroke="#6BFF6B" stroke-width="3" opacity="0.6"/>
      <image href="coach.jpg" x="610" y="240" width="180" height="180" clip-path="url(#photoClip3)" preserveAspectRatio="xMidYMid slice"/>
      <text x="700" y="455" text-anchor="middle" font-family="'Georgia',serif" font-size="16" fill="#6BFF6B" letter-spacing="2">COACH JOE</text>
      <text x="700" y="478" text-anchor="middle" font-family="'Georgia',serif" font-size="11" fill="#8899aa" letter-spacing="1">"Drop and give me twenty!"</text>
    </g>

    <!-- Photo 4: Old Dad -->
    <g opacity="0">
      <animate attributeName="opacity" values="0;0;1;1" keyTimes="0;0.67;0.73;1" dur="12.5s" fill="freeze"/>
      <circle cx="950" cy="330" r="95" fill="none" stroke="#C0C0C0" stroke-width="3" opacity="0.6"/>
      <image href="olddad.jpg" x="860" y="240" width="180" height="180" clip-path="url(#photoClip4)" preserveAspectRatio="xMidYMid slice"/>
      <text x="950" y="455" text-anchor="middle" font-family="'Georgia',serif" font-size="16" fill="#C0C0C0" letter-spacing="2">OLD DAD</text>
      <text x="950" y="478" text-anchor="middle" font-family="'Georgia',serif" font-size="11" fill="#8899aa" letter-spacing="1">"I know things, sonny..."</text>
    </g>

    <!-- Row 2: More characters -->
    <g opacity="0">
      <animate attributeName="opacity" values="0;0;1;1" keyTimes="0;0.72;0.78;1" dur="12.5s" fill="freeze"/>
      <clipPath id="photoClip5"><circle cx="350" cy="570" r="50"/></clipPath>
      <circle cx="350" cy="570" r="53" fill="none" stroke="#FF9EC6" stroke-width="2" opacity="0.6"/>
      <image href="snackmom.jpg" x="300" y="520" width="100" height="100" clip-path="url(#photoClip5)" preserveAspectRatio="xMidYMid slice"/>
      <text x="350" y="640" text-anchor="middle" font-family="'Georgia',serif" font-size="12" fill="#FF9EC6" letter-spacing="1">HENRY'S MOM</text>
      <clipPath id="photoClip6"><circle cx="600" cy="570" r="50"/></clipPath>
      <circle cx="600" cy="570" r="53" fill="none" stroke="#FFD700" stroke-width="2" opacity="0.6"/>
      <image href="dancemom.jpg" x="550" y="520" width="100" height="100" clip-path="url(#photoClip6)" preserveAspectRatio="xMidYMid slice"/>
      <text x="600" y="640" text-anchor="middle" font-family="'Georgia',serif" font-size="12" fill="#FFD700" letter-spacing="1">INFLUENCER</text>
      <circle cx="850" cy="570" r="50" fill="none" stroke="#4a6a8a" stroke-width="2" stroke-dasharray="8,4"/>
      <text x="850" y="585" text-anchor="middle" font-family="'Georgia',serif" font-size="40" fill="#4a6a8a">?</text>
      <text x="850" y="640" text-anchor="middle" font-family="'Georgia',serif" font-size="12" fill="#4a6a8a" letter-spacing="1">AND MORE...</text>
    </g>
  </g>

  <!-- ============================================ -->
  <!-- SCENE 3: ARCADE SHOWCASE (12s - 19s)        -->
  <!-- ============================================ -->
  <g id="scene3" opacity="0">
    <animate attributeName="opacity" values="0;0;1;1;1;0" keyTimes="0;0.63;0.67;0.92;0.96;1" dur="19.8s" fill="freeze"/>

    <!-- Dark arcade background -->
    <rect width="1200" height="675" fill="url(#arcadeFloor)"/>

    <!-- Neon ceiling strip lights -->
    <rect x="0" y="48" width="1200" height="3" fill="#FF6EC7" opacity="0.4">
      <animate attributeName="opacity" values="0.2;0.5;0.2" dur="1.5s" repeatCount="indefinite"/>
    </rect>
    <rect x="0" y="52" width="1200" height="2" fill="#00E5FF" opacity="0.3">
      <animate attributeName="opacity" values="0.3;0.6;0.3" dur="1.8s" repeatCount="indefinite"/>
    </rect>

    <!-- Checkered floor reflections -->
    <g opacity="0.08">
      <rect x="0" y="500" width="100" height="60" fill="#FF6EC7"/>
      <rect x="200" y="500" width="100" height="60" fill="#FF6EC7"/>
      <rect x="400" y="500" width="100" height="60" fill="#FF6EC7"/>
      <rect x="600" y="500" width="100" height="60" fill="#FF6EC7"/>
      <rect x="800" y="500" width="100" height="60" fill="#FF6EC7"/>
      <rect x="1000" y="500" width="100" height="60" fill="#FF6EC7"/>
      <rect x="100" y="560" width="100" height="60" fill="#00E5FF"/>
      <rect x="300" y="560" width="100" height="60" fill="#00E5FF"/>
      <rect x="500" y="560" width="100" height="60" fill="#00E5FF"/>
      <rect x="700" y="560" width="100" height="60" fill="#00E5FF"/>
      <rect x="900" y="560" width="100" height="60" fill="#00E5FF"/>
      <rect x="1100" y="560" width="100" height="60" fill="#00E5FF"/>
    </g>

    <!-- "GAME ROOM" neon sign -->
    <text x="600" y="100" text-anchor="middle" font-family="monospace" font-size="48" fill="#FF6EC7" letter-spacing="12" filter="url(#neonGlow)" opacity="0">
      GAME ROOM
      <animate attributeName="opacity" values="0;0;0.9;1;0.9;1" keyTimes="0;0.65;0.68;0.7;0.72;0.75" dur="19.5s" fill="freeze"/>
    </text>

    <!-- ===== ARCADE 1: SNOWBALL SHOWDOWN (left) ===== -->
    <g transform="translate(160,310)" opacity="0">
      <animate attributeName="opacity" values="0;0;1;1" keyTimes="0;0.68;0.74;1" dur="19.5s" fill="freeze"/>
      <!-- Cabinet -->
      <rect x="-55" y="-105" width="110" height="155" fill="#2A1A4A" rx="6"/>
      <rect x="-52" y="-102" width="104" height="149" fill="none" stroke="#FF6EC7" stroke-width="1.5" rx="5" opacity="0.4"/>
      <!-- Screen -->
      <rect x="-42" y="-92" width="84" height="58" fill="#001800" rx="3"/>
      <rect x="-38" y="-88" width="76" height="50" fill="#002200" rx="2"/>
      <!-- Animated snowball fight on screen -->
      <rect x="-28" y="-78" width="8" height="14" fill="#00FF00" opacity="0.9">
        <animate attributeName="x" values="-28;-22;-28" dur="0.5s" repeatCount="indefinite"/>
      </rect>
      <rect x="20" y="-74" width="8" height="14" fill="#00FF00" opacity="0.9">
        <animate attributeName="x" values="20;26;20" dur="0.45s" repeatCount="indefinite"/>
      </rect>
      <circle r="3" fill="white" opacity="0.9">
        <animate attributeName="cx" values="-15;15;-15" dur="0.4s" repeatCount="indefinite"/>
        <animate attributeName="cy" values="-68;-72;-68" dur="0.4s" repeatCount="indefinite"/>
      </circle>
      <!-- Marquee -->
      <rect x="-48" y="-105" width="96" height="18" fill="#8B0000" rx="3"/>
      <text x="0" y="-91" text-anchor="middle" font-family="monospace" font-size="10" fill="#FFD700" font-weight="bold">SNOWBALL!</text>
      <!-- Controls -->
      <circle cx="-16" cy="-22" r="8" fill="#E84040"/>
      <circle cx="6" cy="-22" r="8" fill="#E84040"/>
      <circle cx="24" cy="-24" r="5" fill="#2878C8"/>
      <!-- Joystick -->
      <rect x="-32" y="-28" width="8" height="12" fill="#888" rx="2"/>
      <circle cx="-28" cy="-30" r="5" fill="#333"/>
      <!-- Coin slot -->
      <rect x="-6" y="2" width="12" height="5" fill="#666" rx="2"/>
      <!-- Legs -->
      <rect x="-50" y="50" width="14" height="22" fill="#1A0A3A"/>
      <rect x="36" y="50" width="14" height="22" fill="#1A0A3A"/>
      <!-- Neon side strips -->
      <line x1="-55" y1="-100" x2="-55" y2="50" stroke="#FF6EC7" stroke-width="2" opacity="0.6">
        <animate attributeName="opacity" values="0.3;0.7;0.3" dur="1.2s" repeatCount="indefinite"/>
      </line>
      <line x1="55" y1="-100" x2="55" y2="50" stroke="#FF6EC7" stroke-width="2" opacity="0.6">
        <animate attributeName="opacity" values="0.7;0.3;0.7" dur="1.2s" repeatCount="indefinite"/>
      </line>
      <!-- Label -->
      <text x="0" y="92" text-anchor="middle" font-family="monospace" font-size="14" fill="#FF6EC7" letter-spacing="2" filter="url(#neonGlow)">SNOWBALL</text>
      <text x="0" y="110" text-anchor="middle" font-family="monospace" font-size="11" fill="#FF6EC7" letter-spacing="1" opacity="0.7">SHOWDOWN</text>
    </g>

    <!-- ===== ARCADE 2: SKI SLALOM (center-left) ===== -->
    <g transform="translate(430,310)" opacity="0">
      <animate attributeName="opacity" values="0;0;1;1" keyTimes="0;0.72;0.78;1" dur="19.5s" fill="freeze"/>
      <!-- Cabinet -->
      <rect x="-55" y="-105" width="110" height="155" fill="#1A2A4A" rx="6"/>
      <rect x="-52" y="-102" width="104" height="149" fill="none" stroke="#00E5FF" stroke-width="1.5" rx="5" opacity="0.4"/>
      <!-- Screen -->
      <rect x="-42" y="-92" width="84" height="58" fill="#000820" rx="3"/>
      <rect x="-38" y="-88" width="76" height="50" fill="#001040" rx="2"/>
      <!-- Animated ski course on screen: scrolling gates -->
      <g>
        <!-- Skier (center) -->
        <polygon points="0,-62 -4,-54 4,-54" fill="#00E5FF"/>
        <!-- Gates scrolling down -->
        <line x1="-20" y1="-70" x2="-20" y2="-60" stroke="#FF4444" stroke-width="2">
          <animate attributeName="y1" values="-88;-40;-88" dur="1s" repeatCount="indefinite"/>
          <animate attributeName="y2" values="-80;-32;-80" dur="1s" repeatCount="indefinite"/>
        </line>
        <line x1="18" y1="-55" x2="18" y2="-45" stroke="#4444FF" stroke-width="2">
          <animate attributeName="y1" values="-88;-40;-88" dur="1s" begin="0.5s" repeatCount="indefinite"/>
          <animate attributeName="y2" values="-80;-32;-80" dur="1s" begin="0.5s" repeatCount="indefinite"/>
        </line>
        <!-- Speed lines -->
        <line x1="-10" y1="-48" x2="-10" y2="-42" stroke="#00E5FF" stroke-width="1" opacity="0.5">
          <animate attributeName="y1" values="-88;-40" dur="0.6s" repeatCount="indefinite"/>
          <animate attributeName="y2" values="-82;-34" dur="0.6s" repeatCount="indefinite"/>
        </line>
        <line x1="8" y1="-52" x2="8" y2="-46" stroke="#00E5FF" stroke-width="1" opacity="0.5">
          <animate attributeName="y1" values="-88;-40" dur="0.7s" repeatCount="indefinite"/>
          <animate attributeName="y2" values="-82;-34" dur="0.7s" repeatCount="indefinite"/>
        </line>
      </g>
      <!-- Score display -->
      <text x="24" y="-82" font-family="monospace" font-size="7" fill="#00E5FF" opacity="0.8">
        00:42.8
        <animate attributeName="opacity" values="0.6;1;0.6" dur="0.3s" repeatCount="indefinite"/>
      </text>
      <!-- Marquee -->
      <rect x="-48" y="-105" width="96" height="18" fill="#004060" rx="3"/>
      <text x="0" y="-91" text-anchor="middle" font-family="monospace" font-size="10" fill="#00E5FF" font-weight="bold">SKI SLALOM</text>
      <!-- Controls -->
      <rect x="-32" y="-28" width="8" height="12" fill="#888" rx="2"/>
      <circle cx="-28" cy="-30" r="5" fill="#333"/>
      <circle cx="10" cy="-22" r="8" fill="#00C8FF"/>
      <circle cx="28" cy="-24" r="5" fill="#0080FF"/>
      <rect x="-6" y="2" width="12" height="5" fill="#666" rx="2"/>
      <rect x="-50" y="50" width="14" height="22" fill="#0A1A3A"/>
      <rect x="36" y="50" width="14" height="22" fill="#0A1A3A"/>
      <!-- Neon side strips -->
      <line x1="-55" y1="-100" x2="-55" y2="50" stroke="#00E5FF" stroke-width="2" opacity="0.6">
        <animate attributeName="opacity" values="0.3;0.7;0.3" dur="1s" repeatCount="indefinite"/>
      </line>
      <line x1="55" y1="-100" x2="55" y2="50" stroke="#00E5FF" stroke-width="2" opacity="0.6">
        <animate attributeName="opacity" values="0.7;0.3;0.7" dur="1s" repeatCount="indefinite"/>
      </line>
      <!-- Label -->
      <text x="0" y="92" text-anchor="middle" font-family="monospace" font-size="14" fill="#00E5FF" letter-spacing="2" filter="url(#neonGlow)">SKI SLALOM</text>
      <text x="0" y="110" text-anchor="middle" font-family="monospace" font-size="11" fill="#00E5FF" letter-spacing="1" opacity="0.7">RACER</text>
    </g>

    <!-- ===== ARCADE 3: ICE BREAKER (center-right) ===== -->
    <g transform="translate(700,310)" opacity="0">
      <animate attributeName="opacity" values="0;0;1;1" keyTimes="0;0.76;0.82;1" dur="19.5s" fill="freeze"/>
      <!-- Cabinet -->
      <rect x="-55" y="-105" width="110" height="155" fill="#1A4A2A" rx="6"/>
      <rect x="-52" y="-102" width="104" height="149" fill="none" stroke="#39FF14" stroke-width="1.5" rx="5" opacity="0.4"/>
      <!-- Screen -->
      <rect x="-42" y="-92" width="84" height="58" fill="#001000" rx="3"/>
      <rect x="-38" y="-88" width="76" height="50" fill="#002000" rx="2"/>
      <!-- Animated Breakout-style ice blocks -->
      <g>
        <!-- Ice block rows -->
        <rect x="-32" y="-84" width="14" height="6" fill="#80D0FF" rx="1">
          <animate attributeName="opacity" values="1;1;0" keyTimes="0;0.5;0.6" dur="2s" repeatCount="indefinite"/>
        </rect>
        <rect x="-16" y="-84" width="14" height="6" fill="#60C0FF" rx="1"/>
        <rect x="0" y="-84" width="14" height="6" fill="#A0E0FF" rx="1">
          <animate attributeName="opacity" values="1;0;1" keyTimes="0;0.4;0.5" dur="1.8s" repeatCount="indefinite"/>
        </rect>
        <rect x="16" y="-84" width="14" height="6" fill="#80D0FF" rx="1"/>
        <rect x="-32" y="-76" width="14" height="6" fill="#60B0FF" rx="1"/>
        <rect x="-16" y="-76" width="14" height="6" fill="#80D0FF" rx="1">
          <animate attributeName="opacity" values="1;1;0;1" keyTimes="0;0.3;0.4;0.5" dur="2.2s" repeatCount="indefinite"/>
        </rect>
        <rect x="0" y="-76" width="14" height="6" fill="#60C0FF" rx="1"/>
        <rect x="16" y="-76" width="14" height="6" fill="#A0E0FF" rx="1"/>
        <!-- Paddle -->
        <rect x="-8" y="-44" width="16" height="4" fill="#39FF14" rx="2">
          <animate attributeName="x" values="-14;6;-14" dur="1.2s" repeatCount="indefinite"/>
        </rect>
        <!-- Ball -->
        <circle r="3" fill="#FFFFFF">
          <animate attributeName="cx" values="-5;10;-5" dur="0.8s" repeatCount="indefinite"/>
          <animate attributeName="cy" values="-48;-80;-48" dur="0.8s" repeatCount="indefinite"/>
        </circle>
      </g>
      <!-- Marquee -->
      <rect x="-48" y="-105" width="96" height="18" fill="#004020" rx="3"/>
      <text x="0" y="-91" text-anchor="middle" font-family="monospace" font-size="10" fill="#39FF14" font-weight="bold">ICE BREAKER</text>
      <!-- Controls -->
      <rect x="-32" y="-28" width="8" height="12" fill="#888" rx="2"/>
      <circle cx="-28" cy="-30" r="5" fill="#333"/>
      <circle cx="10" cy="-22" r="8" fill="#00C800"/>
      <circle cx="28" cy="-24" r="5" fill="#39FF14"/>
      <rect x="-6" y="2" width="12" height="5" fill="#666" rx="2"/>
      <rect x="-50" y="50" width="14" height="22" fill="#0A2A1A"/>
      <rect x="36" y="50" width="14" height="22" fill="#0A2A1A"/>
      <!-- Neon side strips -->
      <line x1="-55" y1="-100" x2="-55" y2="50" stroke="#39FF14" stroke-width="2" opacity="0.6">
        <animate attributeName="opacity" values="0.3;0.7;0.3" dur="0.9s" repeatCount="indefinite"/>
      </line>
      <line x1="55" y1="-100" x2="55" y2="50" stroke="#39FF14" stroke-width="2" opacity="0.6">
        <animate attributeName="opacity" values="0.7;0.3;0.7" dur="0.9s" repeatCount="indefinite"/>
      </line>
      <!-- Label -->
      <text x="0" y="92" text-anchor="middle" font-family="monospace" font-size="14" fill="#39FF14" letter-spacing="2" filter="url(#neonGlow)">ICE BREAKER</text>
      <text x="0" y="110" text-anchor="middle" font-family="monospace" font-size="11" fill="#39FF14" letter-spacing="1" opacity="0.7">SMASH!</text>
    </g>

    <!-- ===== ARCADE 4: PEAK CLIMBER (right) ===== -->
    <g transform="translate(970,310)" opacity="0">
      <animate attributeName="opacity" values="0;0;1;1" keyTimes="0;0.80;0.86;1" dur="19.5s" fill="freeze"/>
      <!-- Cabinet -->
      <rect x="-55" y="-105" width="110" height="155" fill="#4A2A1A" rx="6"/>
      <rect x="-52" y="-102" width="104" height="149" fill="none" stroke="#FFD700" stroke-width="1.5" rx="5" opacity="0.4"/>
      <!-- Screen -->
      <rect x="-42" y="-92" width="84" height="58" fill="#100800" rx="3"/>
      <rect x="-38" y="-88" width="76" height="50" fill="#201000" rx="2"/>
      <!-- Animated climbing game on screen -->
      <g>
        <!-- Mountain side walls -->
        <line x1="-30" y1="-88" x2="-20" y2="-38" stroke="#665533" stroke-width="2"/>
        <line x1="30" y1="-88" x2="20" y2="-38" stroke="#665533" stroke-width="2"/>
        <!-- Platforms -->
        <rect x="-18" y="-50" width="16" height="3" fill="#886644" rx="1"/>
        <rect x="4" y="-62" width="16" height="3" fill="#886644" rx="1"/>
        <rect x="-14" y="-74" width="16" height="3" fill="#886644" rx="1"/>
        <!-- Climber character -->
        <rect x="-2" y="-58" width="6" height="8" fill="#FF6600" rx="1">
          <animate attributeName="y" values="-58;-70;-82;-58" dur="2s" repeatCount="indefinite"/>
          <animate attributeName="x" values="-2;6;-2;-2" dur="2s" repeatCount="indefinite"/>
        </rect>
        <!-- Falling rocks -->
        <rect x="8" y="-80" width="4" height="4" fill="#aa8866" rx="1">
          <animate attributeName="y" values="-88;-38" dur="1.5s" repeatCount="indefinite"/>
        </rect>
        <!-- Summit flag -->
        <line x1="0" y1="-88" x2="0" y2="-82" stroke="#FFD700" stroke-width="1.5"/>
        <polygon points="0,-88 8,-86 0,-84" fill="#FFD700" opacity="0.8"/>
      </g>
      <!-- Marquee -->
      <rect x="-48" y="-105" width="96" height="18" fill="#604010" rx="3"/>
      <text x="0" y="-91" text-anchor="middle" font-family="monospace" font-size="9" fill="#FFD700" font-weight="bold">PEAK CLIMBER</text>
      <!-- Controls -->
      <rect x="-32" y="-28" width="8" height="12" fill="#888" rx="2"/>
      <circle cx="-28" cy="-30" r="5" fill="#333"/>
      <circle cx="10" cy="-22" r="8" fill="#FFB020"/>
      <circle cx="28" cy="-24" r="5" fill="#FFD700"/>
      <rect x="-6" y="2" width="12" height="5" fill="#666" rx="2"/>
      <rect x="-50" y="50" width="14" height="22" fill="#2A1A0A"/>
      <rect x="36" y="50" width="14" height="22" fill="#2A1A0A"/>
      <!-- Neon side strips -->
      <line x1="-55" y1="-100" x2="-55" y2="50" stroke="#FFD700" stroke-width="2" opacity="0.6">
        <animate attributeName="opacity" values="0.3;0.7;0.3" dur="1.1s" repeatCount="indefinite"/>
      </line>
      <line x1="55" y1="-100" x2="55" y2="50" stroke="#FFD700" stroke-width="2" opacity="0.6">
        <animate attributeName="opacity" values="0.7;0.3;0.7" dur="1.1s" repeatCount="indefinite"/>
      </line>
      <!-- Label -->
      <text x="0" y="92" text-anchor="middle" font-family="monospace" font-size="14" fill="#FFD700" letter-spacing="2" filter="url(#neonGlow)">PEAK</text>
      <text x="0" y="110" text-anchor="middle" font-family="monospace" font-size="11" fill="#FFD700" letter-spacing="1" opacity="0.7">CLIMBER</text>
    </g>

    <!-- "INSERT TOKEN" flashing at bottom -->
    <text x="600" y="480" text-anchor="middle" font-family="monospace" font-size="18" fill="#FFD700" letter-spacing="6" opacity="0">
      INSERT TOKEN TO PLAY
      <animate attributeName="opacity" values="0;0;0.6;1;0.6;1;0.6" keyTimes="0;0.82;0.85;0.88;0.91;0.94;1" dur="19.5s" fill="freeze"/>
    </text>
  </g>

  <!-- ============================================ -->
  <!-- SCENE 4: MYSTERY CAVE + TROPHY (19s - 23s)  -->
  <!-- ============================================ -->
  <g id="scene4" opacity="0">
    <animate attributeName="opacity" values="0;0;1;1;1;0" keyTimes="0;0.83;0.86;0.93;0.97;1" dur="23.5s" fill="freeze"/>

    <rect width="1200" height="675" fill="#060610"/>
    <path d="M0,0 L0,675 L1200,675 L1200,0 Z M180,80 Q400,60 600,100 Q800,60 1020,80 L1020,600 Q800,620 600,580 Q400,620 180,600 Z" fill="#10101e"/>

    <!-- Icicles -->
    <g fill="#3a5a7a" opacity="0.5">
      <polygon points="280,80 284,150 276,150"/>
      <polygon points="450,70 453,130 447,130"/>
      <polygon points="600,85 604,165 596,165"/>
      <polygon points="750,65 753,125 747,125"/>
      <polygon points="920,75 924,145 916,145"/>
    </g>

    <!-- Cave markings -->
    <g stroke="#3a4a6a" stroke-width="1.5" fill="none" opacity="0.4">
      <path d="M240,200 L260,180 L280,200 M260,180 L260,160"/>
      <polygon points="340,250 330,230 350,230"/>
      <path d="M860,210 L880,190 L900,210 M880,190 L880,170"/>
      <polygon points="940,260 930,240 950,240"/>
    </g>

    <!-- Trophy reveal -->
    <g transform="translate(600,320)">
      <circle cx="0" cy="0" r="90" fill="#FFD700" opacity="0.06">
        <animate attributeName="r" values="80;100;80" dur="1.5s" repeatCount="indefinite"/>
      </circle>
      <circle cx="0" cy="0" r="60" fill="#FFD700" opacity="0.1">
        <animate attributeName="r" values="55;65;55" dur="1.2s" repeatCount="indefinite"/>
      </circle>

      <g filter="url(#bigGlow)">
        <path d="M-28,-35 L-32,-12 Q-32,18 0,28 Q32,18 32,-12 L28,-35 Z" fill="url(#trophy)" stroke="#DAA520" stroke-width="2"/>
        <path d="M-32,-18 Q-50,-14 -46,4 Q-42,18 -28,14" fill="none" stroke="#FFD700" stroke-width="4"/>
        <path d="M32,-18 Q50,-14 46,4 Q42,18 28,14" fill="none" stroke="#FFD700" stroke-width="4"/>
        <rect x="-7" y="28" width="14" height="18" fill="#DAA520" rx="2"/>
        <ellipse cx="0" cy="50" rx="22" ry="7" fill="#DAA520"/>
        <polygon points="0,-22 4,-12 14,-12 6,-5 8,5 0,-1 -8,5 -6,-5 -14,-12 -4,-12" fill="white" opacity="0.35"/>
      </g>

      <g fill="#FFD700">
        <polygon points="-55,-55 -52,-52 -49,-55 -52,-58"><animate attributeName="opacity" values="0;1;0" dur="1s" repeatCount="indefinite"/></polygon>
        <polygon points="55,-50 58,-47 61,-50 58,-53"><animate attributeName="opacity" values="0.5;1;0.5" dur="0.8s" repeatCount="indefinite"/></polygon>
        <polygon points="-50,45 -47,48 -44,45 -47,42"><animate attributeName="opacity" values="1;0.3;1" dur="1.2s" repeatCount="indefinite"/></polygon>
        <polygon points="52,40 55,43 58,40 55,37"><animate attributeName="opacity" values="0.3;1;0.3" dur="0.9s" repeatCount="indefinite"/></polygon>
        <polygon points="0,-65 2,-62 4,-65 2,-68"><animate attributeName="opacity" values="0;1;0" dur="0.7s" repeatCount="indefinite"/></polygon>
      </g>
    </g>

    <text x="600" y="530" text-anchor="middle" font-family="'Georgia',serif" font-size="26" fill="#FFD700" letter-spacing="4" filter="url(#textShadow)">
      Can you uncover the secret?
    </text>
  </g>

  <!-- ============================================ -->
  <!-- SCENE 5: EPIC FINALE (23s - 30s)            -->
  <!-- ============================================ -->
  <g id="scene5" opacity="0">
    <animate attributeName="opacity" values="0;0;1;1" keyTimes="0;0.76;0.82;1" dur="30s" fill="freeze"/>

    <rect width="1200" height="675" fill="url(#epicBg)"/>

    <!-- Animated particle field -->
    <g fill="white" opacity="0.2">
      <circle cx="80" cy="60" r="1.5"><animate attributeName="cy" values="60;700" dur="6s" repeatCount="indefinite"/></circle>
      <circle cx="220" cy="150" r="1"><animate attributeName="cy" values="150;750" dur="5s" repeatCount="indefinite"/></circle>
      <circle cx="400" cy="30" r="1.5"><animate attributeName="cy" values="30;680" dur="4.5s" repeatCount="indefinite"/></circle>
      <circle cx="600" cy="100" r="1"><animate attributeName="cy" values="100;700" dur="5.5s" repeatCount="indefinite"/></circle>
      <circle cx="800" cy="50" r="1.5"><animate attributeName="cy" values="50;700" dur="4s" repeatCount="indefinite"/></circle>
      <circle cx="980" cy="120" r="1"><animate attributeName="cy" values="120;720" dur="6s" repeatCount="indefinite"/></circle>
      <circle cx="1120" cy="80" r="1.5"><animate attributeName="cy" values="80;680" dur="5s" repeatCount="indefinite"/></circle>
    </g>

    <!-- Glowing trophy above title -->
    <g transform="translate(600,105)" filter="url(#bigGlow)" opacity="0">
      <animate attributeName="opacity" values="0;0;1" keyTimes="0;0.82;0.88" dur="30s" fill="freeze"/>
      <circle cx="0" cy="0" r="50" fill="#FFD700" opacity="0.08">
        <animate attributeName="r" values="45;55;45" dur="2s" repeatCount="indefinite"/>
      </circle>
      <path d="M-16,-20 L-18,-8 Q-18,10 0,16 Q18,10 18,-8 L16,-20 Z" fill="url(#trophy)" stroke="#DAA520" stroke-width="1.5"/>
      <path d="M-18,-12 Q-28,-10 -26,2 Q-24,10 -16,8" fill="none" stroke="#FFD700" stroke-width="3"/>
      <path d="M18,-12 Q28,-10 26,2 Q24,10 16,8" fill="none" stroke="#FFD700" stroke-width="3"/>
      <rect x="-4" y="16" width="8" height="10" fill="#DAA520" rx="1"/>
      <ellipse cx="0" cy="28" rx="12" ry="4" fill="#DAA520"/>
      <!-- Sparkles -->
      <g fill="#FFD700">
        <polygon points="-30,-15 -28,-13 -26,-15 -28,-17"><animate attributeName="opacity" values="0;1;0" dur="0.8s" repeatCount="indefinite"/></polygon>
        <polygon points="30,-12 32,-10 34,-12 32,-14"><animate attributeName="opacity" values="0.5;1;0.5" dur="0.6s" repeatCount="indefinite"/></polygon>
        <polygon points="0,-35 1,-33 2,-35 1,-37"><animate attributeName="opacity" values="1;0;1" dur="0.9s" repeatCount="indefinite"/></polygon>
      </g>
    </g>

    <!-- Main title block -->
    <g opacity="0">
      <animate attributeName="opacity" values="0;0;1" keyTimes="0;0.82;0.88" dur="30s" fill="freeze"/>
      <!-- Dark panel -->
      <rect x="140" y="170" width="920" height="180" fill="#0D1B30" rx="12" opacity="0.95"/>
      <rect x="144" y="174" width="912" height="172" fill="none" stroke="#FFD700" stroke-width="2.5" rx="10" opacity="0.5"/>
      <!-- Corner sparkles -->
      <g fill="#FFD700" opacity="0.5">
        <polygon points="152,182 160,182 152,190"/>
        <polygon points="1048,182 1040,182 1048,190"/>
        <polygon points="152,338 160,338 152,330"/>
        <polygon points="1048,338 1040,338 1048,330"/>
      </g>
      <text x="600" y="250" text-anchor="middle" font-family="'Georgia','Times New Roman',serif" font-size="56" fill="white" font-weight="bold" letter-spacing="5" filter="url(#textShadow)">THE SECRET OF</text>
      <text x="600" y="320" text-anchor="middle" font-family="'Georgia','Times New Roman',serif" font-size="46" fill="#FFD700" font-weight="bold" letter-spacing="7">SNOWPEAK RESORT</text>
    </g>

    <!-- Feature badges that pop in one by one -->
    <g opacity="0">
      <animate attributeName="opacity" values="0;0;1" keyTimes="0;0.86;0.92" dur="30s" fill="freeze"/>

      <!-- Badge 1: Mystery -->
      <g transform="translate(220,420)">
        <rect x="-70" y="-20" width="140" height="40" fill="#1A3A5C" rx="20" stroke="#6BB5FF" stroke-width="1.5" opacity="0.9"/>
        <text x="0" y="6" text-anchor="middle" font-family="'Georgia',serif" font-size="15" fill="#6BB5FF" letter-spacing="2">MYSTERY</text>
      </g>

      <!-- Badge 2: Puzzles -->
      <g transform="translate(420,420)">
        <rect x="-70" y="-20" width="140" height="40" fill="#1A3A5C" rx="20" stroke="#39FF14" stroke-width="1.5" opacity="0.9"/>
        <text x="0" y="6" text-anchor="middle" font-family="'Georgia',serif" font-size="15" fill="#39FF14" letter-spacing="2">PUZZLES</text>
      </g>

      <!-- Badge 3: Arcade -->
      <g transform="translate(620,420)">
        <rect x="-70" y="-20" width="140" height="40" fill="#1A3A5C" rx="20" stroke="#FF6EC7" stroke-width="1.5" opacity="0.9"/>
        <text x="0" y="6" text-anchor="middle" font-family="'Georgia',serif" font-size="15" fill="#FF6EC7" letter-spacing="2">ARCADE</text>
      </g>

      <!-- Badge 4: Adventure -->
      <g transform="translate(820,420)">
        <rect x="-70" y="-20" width="140" height="40" fill="#1A3A5C" rx="20" stroke="#FFD700" stroke-width="1.5" opacity="0.9"/>
        <text x="0" y="6" text-anchor="middle" font-family="'Georgia',serif" font-size="15" fill="#FFD700" letter-spacing="2">ADVENTURE</text>
      </g>
    </g>

    <!-- Subtitle -->
    <text x="600" y="500" text-anchor="middle" font-family="'Georgia',serif" font-size="18" fill="#8AACCC" opacity="0" letter-spacing="6">
      A TEXT ADVENTURE GAME
      <animate attributeName="opacity" values="0;0;0.8" keyTimes="0;0.88;0.94" dur="30s" fill="freeze"/>
    </text>

    <!-- PLAY NOW button - dramatic pulsing -->
    <g opacity="0">
      <animate attributeName="opacity" values="0;0;1" keyTimes="0;0.9;0.95" dur="30s" fill="freeze"/>
      <!-- Glow behind button -->
      <ellipse cx="600" cy="570" rx="160" ry="35" fill="#FFD700" opacity="0.1">
        <animate attributeName="rx" values="150;170;150" dur="1.5s" repeatCount="indefinite"/>
      </ellipse>
      <rect x="440" y="545" width="320" height="58" fill="#FFD700" rx="29" opacity="0.95">
        <animate attributeName="opacity" values="0.85;1;0.85" dur="1s" repeatCount="indefinite"/>
      </rect>
      <rect x="444" y="549" width="312" height="50" fill="none" stroke="#FFF8DC" stroke-width="1.5" rx="27" opacity="0.4"/>
      <text x="600" y="582" text-anchor="middle" font-family="'Georgia',serif" font-size="26" fill="#1A3A5C" font-weight="bold" letter-spacing="5">PLAY NOW</text>
    </g>

    <!-- Decorative snowflakes flanking -->
    <g fill="none" stroke="white" stroke-width="1.5" opacity="0">
      <animate attributeName="opacity" values="0;0;0.4" keyTimes="0;0.88;0.95" dur="30s" fill="freeze"/>
      <g transform="translate(100,260) scale(2)">
        <line x1="0" y1="-8" x2="0" y2="8"/><line x1="-7" y1="-4" x2="7" y2="4"/><line x1="-7" y1="4" x2="7" y2="-4"/>
        <circle cx="0" cy="-8" r="2" fill="white"/><circle cx="0" cy="8" r="2" fill="white"/>
      </g>
      <g transform="translate(1100,260) scale(2)">
        <line x1="0" y1="-8" x2="0" y2="8"/><line x1="-7" y1="-4" x2="7" y2="4"/><line x1="-7" y1="4" x2="7" y2="-4"/>
        <circle cx="0" cy="-8" r="2" fill="white"/><circle cx="0" cy="8" r="2" fill="white"/>
      </g>
      <g transform="translate(100,420) scale(1.2)">
        <line x1="0" y1="-8" x2="0" y2="8"/><line x1="-7" y1="-4" x2="7" y2="4"/><line x1="-7" y1="4" x2="7" y2="-4"/>
      </g>
      <g transform="translate(1100,420) scale(1.2)">
        <line x1="0" y1="-8" x2="0" y2="8"/><line x1="-7" y1="-4" x2="7" y2="4"/><line x1="-7" y1="4" x2="7" y2="-4"/>
      </g>
    </g>
  </g>

  <!-- ============================================ -->
  <!-- CINEMATIC LETTERBOX BARS                     -->
  <!-- ============================================ -->
  <rect x="0" y="0" width="1200" height="45" fill="black"/>
  <rect x="0" y="630" width="1200" height="45" fill="black"/>

</svg>